<svg width="786" height="880" viewBox="0 0 786 880" fill="none" xmlns="http://www.w3.org/2000/svg">
<path d="M613.181 813C613.181 813 595.181 844 567.181 825C539.181 806 562.181 726 611.181 750C611.181 750 582.181 705 601.181 655C620.181 605 638.181 621 638.181 621C638.181 621 615.181 596 650.181 520C685.181 444 714.181 413 749.181 425C784.181 437 799.181 561 758.181 624C758.181 624 773.181 605 779.181 624C785.181 643 805.181 715 716.181 769C627.181 823 613.181 813 613.181 813Z" fill="#F3E7D9"/>
<path d="M408.181 877C420.671 873.39 395.181 755 328.181 751C261.181 747 256.181 779 264.181 800C264.181 800 172.181 690 116.181 674C60.1814 658 85.1814 688 85.1814 688C85.1814 688 17.1814 671 3.18139 693C-10.8186 715 37.1814 788 126.181 823C215.181 858 363.181 890 408.181 877Z" fill="#F3E7D9"/>
<path d="M525.182 643C525.182 643 498.182 550 509.182 515C509.182 515 482.182 515 504.182 458C526.182 401 536.182 394 551.182 402C566.182 410 573.182 448 552.182 485C552.182 485 558.182 462 580.182 469C602.182 476 556.182 617 541.182 639C526.182 661 525.182 643 525.182 643Z" fill="#F3E7D9"/>
<path d="M408.181 551C408.181 551 431.801 549.11 437.181 537L439.181 536C439.181 536 444.181 544 431.181 551C418.181 558 404.181 563 408.181 551Z" fill="#F3E7D9"/>
<path d="M434.181 525C434.181 525 445.181 537 429.181 546C413.181 555 389.181 561 381.181 541C373.181 521 395.181 504 413.181 508C431.181 512 434.181 525 434.181 525Z" fill="#992C29"/>
<path d="M280.181 599C279.181 602 265.181 619 279.181 630C293.181 641 346.271 588.21 321.181 579.6C296.091 570.99 281.181 596 280.181 599Z" fill="#992C29"/>
<path d="M322.181 594C322.181 594 322.181 609 305.181 619C288.181 629 283.181 629 278.181 627C273.181 625 274.181 630 276.181 632C278.181 634 282.181 637 296.181 631C310.181 625 325.181 611 327.181 603C329.181 595 328.181 589 322.181 594Z" fill="#F3E7D9"/>
<path d="M493.952 726.63C493.52 727.361 493.312 728.202 493.351 729.05C493.501 731.79 495.131 736.48 499.351 740.58C503.901 744.97 509.451 753.87 510.741 755.99C510.948 756.318 511.193 756.62 511.471 756.89C512.721 758.06 515.761 765.4 522.931 764.08C534.141 762 531.531 751.95 525.481 743.08C519.431 734.21 514.911 722.88 506.241 720.68C499.331 718.89 495.292 724.38 493.952 726.63Z" fill="#C94039"/>
<path d="M494.182 723C493.752 723.73 494.312 727.2 494.352 728C494.502 730.74 496.132 735.43 500.352 739.53C504.987 744.023 508.849 749.25 511.782 755C514.182 760 520.972 764.09 527.182 763C533.392 761.91 532.572 751 526.522 742C520.472 733 515.952 721.8 507.282 719.6C500.332 717.89 495.512 720.75 494.182 723Z" fill="#121721"/>
<path d="M460.182 634C460.182 634 472.182 661 477.182 673C482.182 685 487.182 706 488.182 714C489.182 722 489.182 725 494.182 725C499.182 725 511.182 732 516.182 726C521.182 720 514.182 700 514.182 700C514.182 700 516.182 627 499.182 610C477.592 588.41 460.182 622 460.182 634Z" fill="#273252"/>
<path d="M496.181 658L500.181 703C498.727 704.917 497.392 706.921 496.181 709C495.181 711 502.181 714 502.181 714C502.181 714 489.181 725 494.181 725C499.181 725 511.181 732 516.181 726C521.181 720 514.181 700 514.181 700C514.181 700 516.181 627 499.181 610C477.591 588.41 496.181 646 496.181 658Z" fill="#1D2538"/>
<path d="M446.822 777.5C446.822 777.5 441.722 786.02 447.682 797.09C453.642 808.16 456.192 824.34 464.682 832.01C473.172 839.68 482.562 841.38 490.232 835.42C497.902 829.46 491.082 809.01 485.972 800.5C480.862 791.99 479.292 783.02 474.972 775.15C470.652 767.28 457.042 765.58 446.822 777.5Z" fill="#121721"/>
<path d="M397.182 539C402.182 539 459.182 577 475.182 590C491.182 603 503.182 609 503.182 619C503.182 629 499.182 636 492.182 640C485.182 644 479.182 646 461.182 636C443.182 626 414.182 608 391.182 598C368.182 588 367.182 570 376.182 554C385.182 538 397.182 539 397.182 539Z" fill="#273252"/>
<path d="M475.182 590C491.182 603 503.182 609 503.182 619C503.182 629 500.182 637 493.182 641L486.182 630L491.182 620L448.182 571C448.182 571 459.182 577 475.182 590Z" fill="#273252"/>
<path d="M378.182 679C378.932 682.93 381.182 694 388.182 700C395.182 706 405.182 722 412.182 739C416.904 750.024 422.948 760.434 430.182 770C430.182 770 433.182 783 441.182 787C449.182 791 466.182 785 466.182 785C466.182 785 475.182 782 475.182 775C475.182 768 466.182 750 466.182 750C466.182 750 423.182 647 417.182 645C411.182 643 374.182 658 378.182 679Z" fill="#273252"/>
<path d="M395.182 697C395.932 700.93 424.182 758 431.182 764C438.182 770 440.182 773 445.182 773C450.182 773 454.182 773 447.182 775C440.182 777 433.182 783 441.182 787C449.182 791 466.182 785 466.182 785C466.182 785 475.182 782 475.182 775C475.182 768 466.182 750 466.182 750C466.182 750 423.182 647 417.182 645C411.182 643 391.182 676 395.182 697Z" fill="#1D2538"/>
<path d="M307.182 572C307.182 572 309.182 589 329.182 617C329.942 618.06 338.682 626.12 339.412 627.19C358.022 654.39 376.182 688 387.182 694C406.032 704.28 427.182 702 429.182 680C431.182 658 414.182 636 396.182 601C378.182 566 361.182 534 333.182 547C305.182 560 307.182 572 307.182 572Z" fill="#273252"/>
<path d="M404.182 648L376.182 653L387.182 694C387.182 694 425.182 716 429.182 680C431.622 658 414.182 636 396.182 601C378.182 566 404.182 648 404.182 648Z" fill="#1D2538"/>
<path d="M315.951 592C318.181 590 348.181 594 354.181 593C360.181 592 385.181 577 385.181 577L393.181 559C393.181 559 395.181 568 395.181 567C395.181 566 403.181 542 403.181 542C403.181 542 396.181 537 391.181 537C385.181 537 315.951 592 315.951 592Z" fill="#1D2538"/>
<path d="M265.181 462C261.481 458.3 202.031 369.69 193.261 356.61C192.964 356.164 192.514 355.843 191.997 355.707C191.479 355.57 190.929 355.629 190.451 355.87C190.169 356.011 189.92 356.21 189.722 356.455C189.523 356.7 189.38 356.985 189.301 357.29C189.222 357.596 189.21 357.915 189.265 358.225C189.321 358.536 189.442 358.831 189.621 359.09L263.181 466L265.181 462Z" fill="#D77D5B"/>
<path d="M195.641 359.84C195.641 359.84 151.181 353 137.181 343C123.181 333 119.181 336 126.181 356C133.181 376 145.181 407 145.181 407C145.181 407 190.181 410 207.181 410C224.181 410 228.391 407.93 228.391 407.93L195.641 359.84Z" fill="#FFACFF"/>
<path d="M158.222 378.4L187.022 382.43L189.032 385.18L159.362 381.46L158.222 378.4Z" fill="#3E4C6F"/>
<path d="M154.802 371.2L195.012 376.89L197.012 379.64L155.942 374.26L154.802 371.2Z" fill="#3E4C6F"/>
<path d="M151.382 365L191.592 370.7L193.592 373.44L152.522 368.07L151.382 365Z" fill="#3E4C6F"/>
<path d="M203.732 390.13C201.662 389.54 196.382 388.3 194.732 391.98C192.732 396.56 198.642 399.76 200.642 399.76L198.642 401.76C198.642 401.76 202.472 401.57 204.642 399.76C207.692 397.25 208.342 391.45 203.732 390.13Z" fill="#3E4C6F"/>
<path d="M129.182 378C130.182 379 145.182 407 145.182 407C145.182 407 165.182 397 163.182 389C161.182 381 129.182 378 129.182 378Z" fill="#665070"/>
<path d="M163.182 389C163.182 389 152.692 383.47 136.432 381.74C120.172 380.01 87.1816 385 80.1816 388C80.1816 388 51.1816 317 44.1816 311C44.1816 311 70.1816 304 96.1816 309C122.182 314 132.182 329 136.182 338C140.182 347 164.182 380 163.182 389Z" fill="#BB83C3"/>
<path d="M107.722 338.56C107.652 341.16 104.652 342.24 101.062 340.96C97.4717 339.68 94.6917 336.61 94.7917 334.06C94.8917 331.51 97.7917 330.45 101.362 331.66C104.932 332.87 107.792 336 107.722 338.56Z" fill="#F3E7D9"/>
<path d="M94.542 362.07L97.662 344.5L113.142 356.15L117.082 328.81L140.832 363.76L94.542 362.07Z" fill="#F3E7D9"/>
<path d="M329.632 415.1C331.842 393.04 284.402 394.91 260.742 401.3C246.102 405.3 232.012 418.17 229.742 425.88C228.962 428.52 226.162 443.3 227.152 450.56C228.222 458.49 243.152 489.94 255.772 484.13C273.082 476.18 327.412 437.17 329.632 415.1Z" fill="#C94039"/>
<path d="M315.011 425.64C315.311 410.25 290.741 397.7 269.061 401.15C243.811 405.15 230.721 421.76 232.421 430.15C234.121 438.54 254.811 444.45 272.421 444.44C290.031 444.43 314.871 432.5 315.011 425.64Z" fill="#F3E7D9"/>
<path d="M267.092 438.08C245.732 432.39 237.802 436.38 237.662 425.18C237.472 410.18 276.602 405.86 285.662 404.63C294.722 403.4 319.982 421.19 317.272 439C314.562 456.81 288.452 443.77 267.092 438.08Z" fill="#273252"/>
<path d="M364.982 265.61C364.982 265.61 350.932 241 350.932 240C350.932 239 353.182 225.75 353.182 219C353.182 215 359.182 202 365.182 203C371.182 204 369.182 205 365.182 223C364.002 228.33 372.322 213.21 376.182 219C380.042 224.79 386.182 222 390.182 225C394.182 228 396.042 245.14 392.182 249C388.322 252.86 385.662 264.14 380.832 267C376.002 269.86 364.982 265.61 364.982 265.61Z" fill="#F5894E"/>
<path d="M363.181 228C366.87 227.321 370.484 226.283 373.971 224.9C378.181 223 384.181 229 377.181 234C370.181 239 366.181 239 366.181 239C366.181 239 351.181 243 363.181 228Z" fill="#F5894E"/>
<path d="M486.181 106C486.181 106 471.081 154 482.631 188C494.181 222 559.181 166 530.181 133C501.181 100 486.181 106 486.181 106Z" fill="#665070"/>
<path d="M504.182 74C506.182 76 529.182 111 573.182 104C617.182 97 637.182 78 663.182 79C663.182 79 647.182 126 663.182 175C663.182 175 637.182 175 588.182 188C539.182 201 513.182 210 490.182 197C467.182 184 498.182 178 513.182 167C528.182 156 528.712 146.69 517.442 127.85C506.172 109.01 504.182 74 504.182 74Z" fill="#856792"/>
<path d="M534.451 178.35C548.214 178.35 559.371 167.193 559.371 153.43C559.371 139.667 548.214 128.51 534.451 128.51C520.688 128.51 509.531 139.667 509.531 153.43C509.531 167.193 520.688 178.35 534.451 178.35Z" fill="#F7BC4B"/>
<path d="M545.121 149.55C546.878 149.55 548.301 148.126 548.301 146.37C548.301 144.614 546.878 143.19 545.121 143.19C543.365 143.19 541.941 144.614 541.941 146.37C541.941 148.126 543.365 149.55 545.121 149.55Z" fill="#121721"/>
<path d="M523.732 149.55C525.488 149.55 526.912 148.126 526.912 146.37C526.912 144.614 525.488 143.19 523.732 143.19C521.975 143.19 520.552 144.614 520.552 146.37C520.552 148.126 521.975 149.55 523.732 149.55Z" fill="#121721"/>
<path d="M534.992 166.45C538.504 166.45 541.352 163.365 541.352 159.56C541.352 155.755 538.504 152.67 534.992 152.67C531.479 152.67 528.632 155.755 528.632 159.56C528.632 163.365 531.479 166.45 534.992 166.45Z" fill="#121721"/>
<path d="M526.741 138.7C525.491 137.28 521.821 137.08 519.961 139.94" stroke="#121721" stroke-linecap="round" stroke-linejoin="round"/>
<path d="M541.882 138.7C543.122 137.28 546.802 137.08 548.652 139.94" stroke="#121721" stroke-linecap="round" stroke-linejoin="round"/>
<path d="M432.181 332L222.661 8.37001C222.238 7.71788 221.964 6.97994 221.86 6.20931C221.756 5.43869 221.824 4.65456 222.059 3.91338C222.294 3.17219 222.691 2.49239 223.22 1.92291C223.75 1.35344 224.399 0.908462 225.121 0.620012C226.262 0.163263 227.526 0.120203 228.696 0.498308C229.865 0.876414 230.864 1.65183 231.521 2.69001L438.181 328L432.181 332Z" fill="#7A462F"/>
<path d="M231.182 21L240.182 16C241.693 15.7216 243.219 15.5247 244.752 15.41C254.402 15.02 265.682 15.5 272.182 19C285.182 26 279.182 36 316.182 46C353.182 56 363.182 56 376.182 49C389.182 42 401.182 18 453.182 32C505.182 46 514.182 62 514.182 62C514.182 62 507.182 113 523.182 139C523.182 139 514.182 121 476.182 123C438.182 125 423.182 134 391.182 144C369.642 150.73 341.132 151.47 326.182 151C318.922 150.77 316.182 156 316.182 156L231.182 21Z" fill="#BB83C3"/>
<path d="M481.841 123.1C481.841 123.1 513.841 122.73 523.181 139C532.521 155.27 514.021 167.41 507.181 170.84C500.341 174.27 483.971 179.84 481.861 189.03C481.861 189.03 473.951 177.69 481.861 123.1" fill="#665070"/>
<path d="M622.516 151.184C628.32 138.443 623.727 123.88 612.258 118.655C600.788 113.431 586.786 119.524 580.982 132.265C575.178 145.006 579.771 159.569 591.241 164.794C602.71 170.018 616.712 163.925 622.516 151.184Z" fill="#C94039"/>
<path d="M591.759 148.073C593.375 147.706 594.451 146.382 594.163 145.116C593.875 143.851 592.332 143.123 590.716 143.491C589.101 143.858 588.024 145.182 588.312 146.448C588.6 147.713 590.144 148.441 591.759 148.073Z" fill="#121721"/>
<path d="M596.331 145.04L586.751 141.62" stroke="#121721" stroke-width="2" stroke-linecap="round" stroke-linejoin="round"/>
<path d="M612.242 146.34C613.857 145.973 614.933 144.649 614.645 143.383C614.357 142.118 612.814 141.39 611.199 141.757C609.583 142.125 608.507 143.449 608.795 144.715C609.083 145.98 610.626 146.708 612.242 146.34Z" fill="#121721"/>
<path d="M606.642 144.16L616.222 139.12" stroke="#121721" stroke-width="2" stroke-linecap="round" stroke-linejoin="round"/>
<path d="M609.422 154.45C609.782 152.3 606.622 151.63 602.492 152.1C598.362 152.57 595.802 154.19 595.562 155.98C595.322 157.77 609.062 156.59 609.422 154.45Z" fill="#121721"/>
<path d="M400.452 94.82C405.612 109.34 401.822 123.11 389.812 126.15C374.482 130 352.012 115.64 343.942 93C335.872 70.36 348.522 57.1 367.002 62.09C381.472 66 395.282 80.31 400.452 94.82Z" fill="#F7BC4B"/>
<path d="M376.602 104.24C380.722 98.55 387.822 103.69 387.822 103.69" stroke="#121721" stroke-width="3" stroke-linecap="round" stroke-linejoin="round"/>
<path d="M389.371 87.93C390.081 89.93 389.421 91.5 387.841 91.41C386.261 91.32 384.261 89.51 383.501 87.41C382.741 85.31 383.501 83.75 385.181 83.95C386.861 84.15 388.651 85.92 389.371 87.93Z" fill="#121721"/>
<path d="M366.861 85.87C367.721 88.29 366.611 90.14 364.321 90.01C362.031 89.88 359.221 87.66 358.321 85.08C357.421 82.5 358.691 80.67 361.121 80.97C362.412 81.2387 363.615 81.8285 364.618 82.6849C365.622 83.5413 366.393 84.6368 366.861 85.87Z" fill="#121721"/>
<path d="M452.501 105.16C467.905 105.16 480.391 92.6732 480.391 77.27C480.391 61.8668 467.905 49.38 452.501 49.38C437.098 49.38 424.611 61.8668 424.611 77.27C424.611 92.6732 437.098 105.16 452.501 105.16Z" fill="#F7BC4B"/>
<g style="mix-blend-mode:multiply">
<path d="M437.341 62.18L445.781 66.78L433.121 69.84" stroke="#121721" stroke-width="2" stroke-linecap="round" stroke-linejoin="round"/>
</g>
<g style="mix-blend-mode:multiply">
<path d="M467.011 62.18L458.571 66.78L471.231 69.84" stroke="#121721" stroke-width="2" stroke-linecap="round" stroke-linejoin="round"/>
</g>
<path d="M467.181 73.29C457.293 70.9939 446.993 71.1553 437.181 73.76C436.216 74.0112 435.379 74.614 434.835 75.4502C434.291 76.2864 434.08 77.2957 434.241 78.28C435.241 85.37 442.641 95.08 452.811 95.08C462.981 95.08 469.681 85.83 470.391 77.64C470.498 76.6448 470.227 75.646 469.633 74.8406C469.038 74.0353 468.164 73.482 467.181 73.29Z" fill="#121721"/>
<path d="M439.182 88.73C440.706 86.447 442.798 84.6007 445.253 83.3732C447.708 82.1457 450.441 81.5793 453.182 81.73C462.812 82.17 466.452 87.73 466.452 87.73C466.452 87.73 463.392 94.42 454.182 95C444.972 95.58 439.182 88.73 439.182 88.73Z" fill="#EE5D4F"/>
<path opacity="0.46" d="M231.182 21L240.182 16C241.693 15.7216 243.219 15.5247 244.752 15.41C254.402 15.02 265.682 15.5 272.182 19C285.182 26 279.182 36 316.182 46C353.182 56 363.182 56 376.182 49C389.182 42 314.892 150 314.892 150L231.182 21Z" fill="#FFACFF"/>
<path d="M368.261 218.81C368.261 218.81 364.121 232.11 369.331 234.62C374.541 237.13 375.331 228.28 375.331 228.28C375.331 228.28 374.111 234.17 375.491 238.1C376.871 242.03 379.281 241.05 381.201 237.1C383.121 233.15 381.401 236.1 381.401 236.1C381.401 236.1 379.771 243.96 384.171 243.96C388.571 243.96 392.831 228.1 390.301 224.73C387.771 221.36 387.931 221.99 384.301 222.66C384.301 222.66 381.211 218.25 376.771 219.81C376.771 219.81 375.441 215.2 368.271 218.81" fill="#F5894E"/>
<path d="M366.182 250C366.182 250 371.182 238.9 368.702 235.45C368.702 235.45 375.182 242 366.182 250Z" fill="#CC6D3D"/>
<path d="M363.181 228C366.87 227.321 370.484 226.283 373.971 224.9C378.181 223 384.181 229 377.181 234C370.181 239 366.181 239 366.181 239C366.181 239 351.181 243 363.181 228Z" fill="#CC6D3D"/>
<path d="M361.182 228C364.871 227.321 368.485 226.283 371.972 224.9C376.182 223 382.182 229 375.182 234C371.657 236.418 368.315 239.092 365.182 242C365.182 242 349.182 243 361.182 228Z" fill="#F5894E"/>
<path d="M360.181 262.44C361.901 267.63 364.601 262.8 373.451 263.52C380.811 264.11 386.451 267.25 387.741 262.9C389.251 257.63 383.681 258.11 372.111 258.06C364.681 258 358.421 257.24 360.181 262.44Z" fill="#F3E7D9"/>
<path d="M377.121 368.33C371.243 366.892 365.983 363.599 362.121 358.94C357.121 352.78 358.361 346.63 359.491 337.03C361.731 317.94 359.781 326.34 358.091 313.12C355.941 296.23 352.361 265.12 366.401 262.91C383.641 260.16 387.661 261.76 389.261 267.31C390.861 272.86 388.171 270.8 389.261 274.79C390.351 278.78 393.181 316.88 394.701 325.28C396.221 333.68 395.421 338.39 395.421 338.39C395.421 338.39 396.352 348.1 396.312 353.27C396.271 358.44 395.321 370.5 377.121 368.33Z" fill="#C94039"/>
<path d="M377.061 368.81C377.061 368.81 386.431 351.47 387.201 344.59C388.281 334.89 376.991 272.51 376.991 272.51C376.991 272.51 383.091 253.98 389.291 267.31C391.721 272.54 390.711 296.4 391.801 300.39C392.891 304.38 393.211 316.88 394.731 325.28C396.251 333.68 395.451 338.39 395.451 338.39C395.451 338.39 396.381 348.1 396.341 353.27C396.301 358.44 395.251 371 377.061 368.81Z" fill="#992C29"/>
<path d="M386.701 335.35L379.991 314.44L371.331 300.82C371.331 300.82 386.761 310.43 388.491 319.52C389.549 324.855 388.923 330.386 386.701 335.35Z" fill="#992C29"/>
<path d="M363.361 452.9C357.111 453.44 337.451 422.34 337.451 410.41C337.451 405.23 348.851 390.73 348.851 390.73L349.851 385.55C350.671 381.63 354.181 357 358.181 353C362.181 349 368.181 356 378.181 356C388.181 356 396.841 341.42 396.521 356.53C396.201 371.64 384.701 395.13 383.461 406.76C382.221 418.39 369.761 452.34 363.361 452.9Z" fill="#273252"/>
<path d="M363.361 452.9C357.111 453.44 337.451 422.34 337.451 410.41C337.451 405.23 351.031 412.41 354.451 412.68C357.871 412.95 370.021 403.19 370.021 403.19L366.591 397.65C366.591 397.65 368.181 356 378.181 356C388.181 356 396.841 341.42 396.521 356.53C396.201 371.64 384.701 395.13 383.461 406.76C382.221 418.39 369.761 452.34 363.361 452.9Z" fill="#1D2538"/>
<path d="M407.181 529C405.181 532 405.181 534 409.181 535C413.181 536 412.181 531 421.181 530C426.791 529.38 433.931 533.84 436.181 538C437.541 540.52 433.921 544.13 436.181 543C442.181 540 443.181 529 429.181 525C425.239 523.8 421.056 523.629 417.03 524.504C413.003 525.379 409.268 527.271 406.181 530" fill="#F3E7D9"/>
<path d="M273.351 433.05C273.351 433.05 289.521 419.33 321.181 413.05C331.181 411.05 347.631 422.68 359.181 449.05C370.731 475.42 399.181 532.05 399.181 532.05C399.181 532.05 377.491 561.73 352.181 579.05C333.411 591.89 310.841 594.87 303.181 590.05C285.181 578.68 247.461 449.93 273.351 433.05Z" fill="#F7BC4B"/>
<path d="M318.111 422.17C321.051 429.02 314.281 441.92 304.991 445.91C295.701 449.9 281.201 443.68 278.251 436.83C275.301 429.98 285.911 426 295.181 422C304.451 418 315.181 415.32 318.111 422.17Z" fill="#F5894E"/>
<path d="M357.181 547.15L344.731 486.87L318.451 418.72C330.671 416.72 354.881 430.99 366.451 457.36C378.021 483.73 399.771 532 399.771 532L392.771 547L348.181 589L305.181 592L318.851 589.12C318.851 589.12 344.791 582.12 348.651 577.25C356.521 567.25 369.051 535.11 369.051 535.11L357.181 547.15Z" fill="#CE9436"/>
<path d="M319.541 418.48C321.381 411.83 329.181 408 335.181 408C341.181 408 332.181 408 352.181 429C357.411 434.49 364.261 439.29 367.691 445C393.241 487.79 422.851 498 429.181 505C436.361 513 444.601 530.78 439.181 543C436.701 548.58 447.181 528 425.181 524C416.331 522.39 406.181 530 406.181 530C396.181 526 371.981 503.35 363.021 482.7C358.411 472.08 347.181 450.39 337.181 437C327.701 424.36 319.181 419.72 319.541 418.48Z" fill="#C94039"/>
<path d="M319.541 418.48C321.381 411.83 329.181 408 335.181 408C341.181 408 332.181 408 352.181 429C357.411 434.49 364.261 439.29 367.691 445C393.241 487.79 422.851 498 429.181 505C436.361 513 444.601 530.78 439.181 543C436.701 548.58 447.181 528 425.181 524L415.381 504.46C405.381 500.46 382.151 481.52 382.151 481.52C382.151 481.52 347.181 450.39 337.181 437C327.701 424.36 319.181 419.72 319.541 418.48Z" fill="#992C29"/>
<path d="M306.681 416.5C323.011 421.95 330.841 472.08 323.681 474.41C316.521 476.74 271.561 435.69 280.681 425.5" stroke="#992C29" stroke-miterlimit="10"/>
<path d="M326.626 483.556C328.036 483.124 328.508 480.586 327.681 477.888C326.853 475.19 325.04 473.353 323.63 473.786C322.22 474.218 321.748 476.756 322.575 479.454C323.403 482.152 325.217 483.989 326.626 483.556Z" fill="#29ABE2"/>
<path d="M314.621 412.29C320.561 409.79 323.271 410.77 327.481 411.96C331.691 413.15 335.021 417.23 342.221 428.06C349.421 438.89 360.631 471.49 357.221 473C353.811 474.51 342.511 446.14 335.221 437C327.931 427.86 308.681 414.79 314.621 412.29Z" fill="#F3E7D9"/>
<path d="M300.181 603C307.401 600.59 311.181 593 304.181 594C297.181 595 295.181 600 288.181 605C281.181 610 272.511 618.66 277.181 628C279.181 632 280.181 632 283.181 626C286.181 620 288.181 607 300.181 603Z" fill="#F3E7D9"/>
<path d="M273.071 437.11C280.251 439.72 296.071 470.66 301.741 488.11C307.411 505.56 303.991 533.29 307.471 544.33C310.951 555.37 312.361 591.07 310.121 594.16C309.231 595.39 292.541 600.3 286.181 606.97C280.35 613.29 276.826 621.395 276.181 629.97C276.181 629.97 241.391 600.76 259.181 542.97C258.181 519.97 234.531 470.73 236.181 462.97C237.831 455.21 265.891 434.49 273.071 437.11Z" fill="#992C29"/>
<path d="M281.621 449.54C288.811 452.15 296.081 470.66 301.741 488.14C307.401 505.62 303.991 533.32 307.471 544.36C310.951 555.4 312.361 591.1 310.121 594.19C308.481 596.46 303.181 554 303.181 554C303.181 554 292.821 551.81 291.741 543.64C291.221 539.64 293.471 488.32 293.471 488.32C293.471 488.32 274.441 446.92 281.621 449.54Z" fill="#C94039"/>
<path d="M305.481 499.33C307.711 494.94 304.721 487.82 299.971 476.96C295.221 466.1 288.181 448.27 279.561 438.72C270.511 428.72 250.341 439.64 259.461 443.72C268.881 447.93 279.351 455.63 289.171 472.04C300.091 490.29 303.261 503.71 305.481 499.33Z" fill="#F3E7D9"/>
<path d="M287.951 567.55L291.851 568.55C291.851 568.55 289.161 583.75 277.011 587.42L275.801 584.65C275.801 584.65 284.771 581.22 287.951 567.55Z" fill="#F3E7D9"/>
<path d="M295.731 493.36C295.731 493.36 304.911 518.66 288.951 528.31C292.68 516.994 294.958 505.25 295.731 493.36Z" fill="#C94039"/>
<path d="M396.181 507L397.181 510.79C397.181 510.79 402.181 514 419.181 512L418.181 508C418.181 508 405.181 513 396.181 507Z" fill="#F3E7D9"/>
<path d="M501.981 319.13C520.77 319.13 536.001 303.899 536.001 285.11C536.001 266.321 520.77 251.09 501.981 251.09C483.192 251.09 467.961 266.321 467.961 285.11C467.961 303.899 483.192 319.13 501.981 319.13Z" fill="#29ABE2"/>
<path d="M479.501 287.64L498.591 268.61L525.601 276.91" stroke="#F3E7D9" stroke-width="5" stroke-linecap="round" stroke-linejoin="round"/>
<path d="M517.391 277.66C517.333 276.621 516.952 275.626 516.301 274.814C515.65 274.002 514.762 273.413 513.761 273.13L501.941 269.58C500.951 269.288 499.9 269.272 498.901 269.532C497.902 269.793 496.993 270.321 496.271 271.06L488.271 279.27C487.535 280.011 487.049 280.964 486.883 281.996C486.716 283.027 486.876 284.084 487.341 285.02L496.181 302.13C496.758 303.179 497.668 304.004 498.768 304.476C499.868 304.947 501.094 305.036 502.251 304.73L514.011 301.84C515.208 301.571 516.276 300.899 517.036 299.935C517.795 298.972 518.2 297.777 518.181 296.55L517.391 277.66ZM504.741 291.21C503.667 291.408 502.559 291.286 501.553 290.861C500.547 290.436 499.688 289.725 499.081 288.817C498.475 287.909 498.148 286.843 498.14 285.751C498.132 284.659 498.445 283.588 499.039 282.672C499.633 281.756 500.482 281.033 501.482 280.594C502.482 280.155 503.589 280.018 504.665 280.201C505.742 280.384 506.741 280.878 507.54 281.622C508.339 282.367 508.903 283.329 509.161 284.39C509.479 285.88 509.191 287.436 508.363 288.715C507.534 289.993 506.231 290.891 504.741 291.21Z" fill="#F3E7D9"/>
<path opacity="0.5" d="M531.181 275.29C531.181 287.75 475.311 287.75 475.311 275.29C475.311 262.83 487.811 252.73 503.241 252.73C518.671 252.73 531.181 262.83 531.181 275.29Z" fill="#FFFCF3"/>
<path d="M456.991 359.96L470.181 386.07" stroke="#F7BC4B" stroke-width="3" stroke-linecap="round" stroke-linejoin="round"/>
<path d="M447.15 389.34L471.81 371.21" stroke="#F7BC4B" stroke-width="3" stroke-linecap="round" stroke-linejoin="round"/>
<path d="M442.961 381.18L467.621 363.06" stroke="#F7BC4B" stroke-width="3" stroke-linecap="round" stroke-linejoin="round"/>
<path d="M446.531 367.85L459.721 393.96" stroke="#F7BC4B" stroke-width="3" stroke-linecap="round" stroke-linejoin="round"/>
<path d="M276.392 177.96L209.932 215.41L262.152 238.62L276.392 177.96Z" fill="#33A86D"/>
<path opacity="0.5" d="M276.392 177.96L250.812 193.52L262.152 238.62L276.392 177.96Z" fill="#FFFCF3"/>
<path d="M276.391 177.96L272.851 181.97L233.401 225.69L236.301 226.75L276.391 177.96Z" fill="#288453"/>
<path d="M178.921 122.9C179.751 124.63 186.101 138.33 182.351 146.72C182.267 146.904 182.244 147.109 182.286 147.307C182.328 147.504 182.433 147.683 182.584 147.816C182.736 147.95 182.926 148.031 183.127 148.048C183.328 148.065 183.529 148.016 183.701 147.91C190.971 143.37 206.561 131.34 206.091 111.81C205.491 86.58 178.661 113.81 178.831 122.51C178.831 122.645 178.862 122.779 178.921 122.9Z" fill="#F7BC4B"/>
<path d="M182.881 77.89H161.461C148.642 77.89 138.251 88.2815 138.251 101.1V111.01C138.251 123.829 148.642 134.22 161.461 134.22H182.881C195.7 134.22 206.091 123.829 206.091 111.01V101.1C206.091 88.2815 195.7 77.89 182.881 77.89Z" fill="#F7BC4B"/>
<path opacity="0.5" d="M156.831 94.78C155.764 94.1337 154.897 93.2039 154.327 92.094C153.757 90.9841 153.506 89.7378 153.602 88.4937C153.699 87.2497 154.138 86.0569 154.873 85.0481C155.607 84.0393 156.607 83.2541 157.761 82.78C167.901 78.72 184.411 82.02 188.301 82.48C199.941 83.88 202.431 97.48 202.131 110.83C202.104 111.977 201.777 113.097 201.181 114.077C200.585 115.057 199.741 115.863 198.735 116.414C197.729 116.965 196.596 117.242 195.449 117.217C194.302 117.191 193.182 116.865 192.201 116.27L156.831 94.78Z" fill="#FFFCF3"/>
<path d="M69.9518 258.13C90.7453 258.13 107.602 241.273 107.602 220.48C107.602 199.686 90.7453 182.83 69.9518 182.83C49.1582 182.83 32.3018 199.686 32.3018 220.48C32.3018 241.273 49.1582 258.13 69.9518 258.13Z" fill="#29ABE2"/>
<path d="M61.2619 246.24C58.0019 248.12 54.6019 247.33 52.2619 243.31L47.7319 234.73C45.4119 230.73 45.5919 226.66 48.8519 224.73C52.1119 222.85 55.3219 223.29 57.6419 227.31L62.1719 235.89C64.5119 240 64.5219 244.36 61.2619 246.24Z" fill="#F3E7D9"/>
<path d="M59.1122 226.05C57.8522 223.94 58.6722 221.64 59.2022 219.23C59.8722 216.18 61.0922 209.23 60.6022 208.03C59.7822 205.97 55.6022 198.03 56.5022 195.83C57.4022 193.63 62.9722 193.15 65.3322 195.53C68.2022 198.43 68.2022 199.83 69.2422 203.95C70.1122 207.44 69.7822 208.14 73.2422 207.03C77.2422 205.74 82.9022 205.19 84.6422 204.43C85.2242 204.188 85.85 204.069 86.4803 204.08C87.1105 204.091 87.7317 204.233 88.3046 204.496C88.8775 204.759 89.3898 205.137 89.8093 205.608C90.2288 206.078 90.5464 206.631 90.7422 207.23C90.9545 207.714 91.0384 208.244 90.9858 208.769C90.9333 209.295 90.746 209.798 90.4422 210.23C91.075 210.588 91.6248 211.077 92.0557 211.663C92.4865 212.249 92.7886 212.919 92.9422 213.63C93.28 215.21 93.1048 216.856 92.4422 218.33C92.4422 218.33 95.9422 219.83 94.7422 224.83C94.7422 224.83 97.0522 229.4 94.0422 232.03C91.7522 234.03 87.6222 235.7 82.6422 237.83C74.2422 241.43 68.3922 241.58 66.7422 239.93C65.0922 238.28 59.1122 226.05 59.1122 226.05Z" fill="#F3E7D9"/>
<path opacity="0.5" d="M97.6019 215.6C97.6019 231.6 39.002 231.6 39.002 215.6C39.002 207.829 42.0889 200.377 47.5837 194.882C53.0785 189.387 60.5311 186.3 68.3019 186.3C76.0728 186.3 83.5254 189.387 89.0202 194.882C94.515 200.377 97.6019 207.829 97.6019 215.6Z" fill="#FFFCF3"/>
<path d="M219.981 290.61C220.447 292.211 220.589 293.889 220.398 295.546C220.208 297.202 219.689 298.804 218.871 300.257C218.054 301.711 216.956 302.987 215.639 304.011C214.323 305.034 212.816 305.785 211.206 306.22C209.596 306.654 207.916 306.763 206.263 306.54C204.611 306.317 203.019 305.766 201.582 304.921C200.145 304.075 198.891 302.952 197.893 301.616C196.895 300.28 196.174 298.758 195.771 297.14" stroke="#F7BC4B" stroke-width="3" stroke-miterlimit="10"/>
<path d="M195.751 257.08C195.751 257.08 206.391 250.2 214.581 265.59C217.061 270.25 218.781 273.59 221.961 279.31C223.401 281.88 229.441 287.67 229.441 287.67L205.731 294.07" stroke="#F7BC4B" stroke-width="3" stroke-miterlimit="10"/>
<path d="M200.121 255.9C200.121 255.9 187.461 255.31 188.121 272.73C188.321 278 188.521 281.73 188.641 288.29C188.691 291.24 186.371 299.29 186.371 299.29L210.091 292.9" stroke="#F7BC4B" stroke-width="3" stroke-miterlimit="10"/>
<path d="M72.7011 486.79C83.9911 503.21 105.351 507.55 121.041 497.99C136.421 488.62 142.601 468.12 134.491 450.67C125.571 431.51 102.821 422.78 84.1311 433.17C65.0011 443.8 60.2411 468.7 72.7011 486.79Z" fill="#EE5D4F"/>
<path opacity="0.5" d="M99.6915 455.41C99.6915 455.41 136.102 467.53 129.022 452.31C121.232 435.59 101.392 428 85.0915 437C68.4015 446.31 99.6915 455.41 99.6915 455.41Z" fill="#FFFCF3"/>
<g style="mix-blend-mode:color-dodge">
<path d="M80.1208 467.05C80.0008 453.15 95.9608 457.9 98.0008 458.57C98.4608 456.47 102.381 440.51 114.001 447.57C131.001 458.02 115.671 483.08 113.851 485.92L113.921 486.05H113.761C113.734 486.099 113.704 486.146 113.671 486.19L113.601 486.06C110.241 486.36 80.3108 487.89 80.1208 467.05Z" fill="#FFFCF3"/>
</g>
<path d="M294.721 502.78L344.671 482.34C346.842 481.454 349.272 481.441 351.452 482.303C353.632 483.166 355.395 484.838 356.371 486.97L375.891 529.64C376.395 530.736 376.674 531.921 376.714 533.127C376.753 534.332 376.552 535.533 376.122 536.66C375.692 537.787 375.041 538.816 374.208 539.689C373.376 540.561 372.377 541.258 371.271 541.74L317.721 565.12C316.576 565.623 315.339 565.883 314.088 565.885C312.837 565.886 311.6 565.629 310.453 565.13C309.306 564.63 308.275 563.899 307.425 562.982C306.575 562.064 305.923 560.981 305.511 559.8L289.581 514.18C288.817 511.983 288.923 509.576 289.88 507.456C290.836 505.335 292.569 503.662 294.721 502.78Z" fill="#F3E7D9"/>
<path d="M333.492 542.18C343.836 542.18 352.222 533.794 352.222 523.45C352.222 513.106 343.836 504.72 333.492 504.72C323.147 504.72 314.762 513.106 314.762 523.45C314.762 533.794 323.147 542.18 333.492 542.18Z" fill="#29ABE2"/>
<path d="M325.762 515.51L333.932 535.02L342.682 519.22L325.762 515.51Z" fill="#C94039"/>
<g opacity="0.5">
<path opacity="0.5" d="M309.492 499.79L345.492 485.06C347.056 484.422 348.807 484.413 350.378 485.035C351.949 485.658 353.219 486.863 353.922 488.4L367.992 519.14C369.502 522.47 306.262 501.11 309.492 499.79Z" fill="#FFFCF3"/>
</g>
<path d="M273.701 404.21L286.641 438.21C286.641 438.21 291.271 444.21 301.481 440.73C311.691 437.25 311.391 428.45 311.391 428.45L297.271 390.3L273.701 404.21Z" fill="#F5894E"/>
<path d="M273.701 404.21C273.701 404.21 290.601 424.21 296.581 427.21C302.561 430.21 310.181 427 310.181 427L298.521 390L273.701 404.21Z" fill="#CC6D3D"/>
<path d="M254.282 398.77C270.682 415.77 279.882 417.27 279.882 417.27C312.972 408.34 318.102 378.76 308.882 359.27C300.082 338.76 295.932 333.76 272.932 341.87C240.872 353.15 239.672 383.64 254.282 398.77Z" fill="#1D2538"/>
<path d="M254.282 398.77C270.682 415.76 278.182 410 278.182 410C311.282 401.08 318.102 378.76 308.862 359.26C300.062 338.75 297.862 330.12 270.642 338.06C232.812 349.09 239.672 383.64 254.282 398.77Z" fill="#3E4C6F"/>
<path d="M252.231 399.81C266.231 414.3 285.441 392.49 285.441 392.49C289.171 387.65 284.381 369.49 281.051 357.54C278.181 347.24 280.291 335.69 253.951 348.95C230.541 360.74 239.781 386.91 252.231 399.81Z" fill="#1D2538"/>
<path d="M273.691 344.35C273.691 344.35 294.191 346.77 298.281 348.86C302.371 350.95 317.741 384.37 316.431 397.28C315.131 410.02 279.561 421.86 268.721 417.06C259.841 413.14 258.981 406.17 253.591 396.14C247.911 385.57 252.801 375.43 252.001 370.8C250.611 362.88 273.691 344.35 273.691 344.35Z" fill="#CC6D3D"/>
<path d="M245.721 398.09C249.521 403.83 255.811 407.56 258.271 406.28C260.731 405 259.681 399.28 255.871 393.48C252.061 387.68 246.941 384.03 244.481 385.37C242.021 386.71 241.921 392.34 245.721 398.09Z" fill="#CC6D3D"/>
<path d="M297.721 354.89C304.641 356.39 320.221 392.66 312.541 401.46C304.861 410.26 295.641 411.98 286.691 408.59C278.851 405.59 272.741 378.7 278.691 369.9C285.891 359.13 290.791 353.4 297.721 354.89Z" fill="#F5894E"/>
<path d="M248.072 364.39C248.072 364.39 256.022 380.07 255.952 385.65L254.392 394.45L244.052 371.84L248.072 364.39Z" fill="#1D2538"/>
<path d="M295.241 335.76C295.241 335.76 291.391 344.35 271.421 351.05C261.511 354.37 254.241 360.78 249.101 361.38C236.461 362.84 249.151 333.97 269.291 326.46C289.651 318.88 295.241 335.76 295.241 335.76Z" fill="#1D2538"/>
<path d="M269.321 326.17C253.391 332.87 241.231 353.54 251.411 352.36C254.301 352.02 258.861 351.36 264.291 350.22C273.041 345.8 281.091 337.95 281.091 337.95C281.921 342.6 277.371 346.05 272.011 348.45C277.089 347.176 282.096 345.633 287.011 343.83C295.371 340.73 296.411 340.88 296.081 337.88C295.431 331.77 286.531 318.94 269.321 326.17Z" fill="#3E4C6F"/>
<path d="M270.002 372C270.742 374.41 272.202 375.12 273.412 374.75C274.622 374.38 275.112 373.07 274.412 370.65C273.712 368.23 272.092 366.58 270.882 366.95C269.672 367.32 269.262 369.56 270.002 372Z" fill="#34283A"/>
<path d="M290.292 366C291.032 368.41 292.492 369.12 293.702 368.75C294.912 368.38 295.402 367.07 294.702 364.66C294.002 362.25 292.382 360.59 291.182 360.96C289.982 361.33 289.552 363.59 290.292 366Z" fill="#34283A"/>
<path d="M264.182 366.09C264.313 366.041 264.429 365.958 264.517 365.849C264.605 365.739 264.662 365.609 264.682 365.47C264.682 365.29 265.402 361.06 268.902 360.83C269.004 360.824 269.104 360.797 269.197 360.752C269.289 360.707 269.371 360.644 269.439 360.567C269.507 360.489 269.559 360.4 269.592 360.302C269.625 360.205 269.638 360.102 269.632 360C269.619 359.792 269.524 359.598 269.369 359.459C269.213 359.321 269.01 359.249 268.802 359.26C264.992 359.51 263.422 363.26 263.132 365.26C263.103 365.465 263.156 365.674 263.279 365.84C263.403 366.007 263.587 366.118 263.792 366.15C263.925 366.16 264.058 366.14 264.182 366.09Z" fill="#34283A"/>
<path d="M297.181 355.68C297.254 355.655 297.321 355.618 297.381 355.57C297.545 355.445 297.653 355.26 297.681 355.056C297.709 354.852 297.655 354.645 297.531 354.48C295.361 351.58 291.531 352.29 289.871 353.07C289.692 353.157 289.553 353.309 289.483 353.495C289.412 353.68 289.415 353.886 289.491 354.07C289.578 354.249 289.729 354.389 289.915 354.461C290.1 354.533 290.306 354.533 290.491 354.46C290.651 354.38 294.301 352.78 296.251 355.38C296.349 355.528 296.494 355.639 296.663 355.694C296.832 355.748 297.015 355.743 297.181 355.68Z" fill="#34283A"/>
<path d="M185.812 531.53C185.812 531.53 222.422 475.86 229.292 466.97C236.292 457.9 245.472 449.9 256.922 455.23C268.372 460.56 277.992 476.9 268.652 489.23C259.312 501.56 238.402 532.85 231.302 538.69C224.202 544.53 211.532 557 211.372 551.37C211.212 545.74 185.812 531.53 185.812 531.53Z" fill="#1D2538"/>
<path d="M185.811 531.53C184.121 529.32 196.301 515.35 208.181 499C217.391 486.32 226.291 470.85 229.291 467C236.291 457.93 252.861 447.54 252.181 460.14C251.111 479.81 216.181 489.14 222.651 518.03C227.241 538.52 188.821 535.45 185.811 531.53Z" fill="#273252"/>
<path d="M241.751 479.53C241.751 479.53 226.561 484.8 218.911 499.53C211.261 514.26 241.751 479.53 241.751 479.53Z" fill="#273252"/>
<path d="M270.182 533C270.182 533 256.182 531 234.182 528C212.182 525 203.182 510 192.182 519C181.182 528 178.182 548 187.182 556C196.182 564 230.182 567 247.182 570C264.182 573 270.182 581 274.182 568C278.182 555 276.182 538 270.182 533Z" fill="#C94039"/>
<path d="M270.182 533C270.182 533 256.182 531 234.182 528C212.182 525 258.722 544.81 258.722 544.81C258.722 544.81 270.182 581 274.182 568C278.182 555 276.182 538 270.182 533Z" fill="#992C29"/>
<path d="M277.502 538.24C277.502 538.24 269.712 535.87 267.122 546.12C264.532 556.37 267.602 568.34 272.982 569.85C278.362 571.36 277.502 565.05 277.502 565.05C277.502 565.05 274.042 563.47 274.042 556.37C274.042 549.27 280.102 542.18 280.102 542.18L277.502 538.24Z" fill="#F3E7D9"/>
<path d="M273.362 560.44C270.362 555.19 271.792 550.21 273.272 543.52C275.122 535.19 278.962 526.99 281.182 522C285.182 513 292.741 513.56 297.291 512.37C304.911 510.37 307.872 510.79 307.872 510.79C307.872 510.79 313.812 512.97 312.722 514.95C311.632 516.93 302.862 516.65 303.032 516.95C303.202 517.25 304.802 516.57 306.692 517.65C307.344 518.09 307.875 518.687 308.237 519.386C308.599 520.085 308.779 520.863 308.761 521.65C308.827 522.475 308.624 523.3 308.182 524C308.758 523.879 309.359 523.974 309.869 524.267C310.38 524.561 310.765 525.031 310.951 525.59C311.43 526.924 311.696 528.324 311.742 529.74C311.538 531.012 311.064 532.227 310.352 533.3C310.352 533.3 311.741 532.3 312.731 534.88C313.722 537.46 312.282 540.75 312.192 541.34C311.192 548.34 294.192 551.96 294.192 551.96C293.638 554.198 292.628 556.297 291.223 558.124C289.819 559.952 288.051 561.469 286.032 562.58C279.032 566.58 278.642 566.36 277.192 564.96C275.83 563.527 274.551 562.018 273.362 560.44Z" fill="#F5894E"/>
</svg>
