<svg width="411" height="232" viewBox="0 0 411 232" fill="none" xmlns="http://www.w3.org/2000/svg">
<path d="M329.663 203.458C323.016 193.924 277.731 159.425 206.53 162.271C146.141 164.686 103.904 192.635 97.4585 195.778C91.0131 198.921 93.6996 201.017 111.961 198.397C130.223 195.776 139.353 196.3 139.353 196.3L138.278 198.919C138.278 198.919 123.733 211.189 122.66 215.38C121.585 219.571 127.494 220.095 133.939 217.476C140.384 214.858 187.692 205.73 193.6 205.206C199.509 204.682 209.923 208.033 214.219 208.555C218.515 209.079 246.874 217.949 252.836 218.467C258.797 218.987 255.809 209.326 248.263 195.668C244.92 189.615 275.833 205 282.815 206.572C289.798 208.145 279.523 198.923 278.448 197.353C277.374 195.782 318.208 206.252 326.803 210.968C335.395 215.687 336.309 212.991 329.663 203.458Z" fill="#F4E8D8"/>
<path d="M169.761 157.771C169.761 157.771 117.568 167.384 96.4553 136.388C75.3424 105.392 94.7386 60.6378 134.618 52.0066C134.618 52.0066 92.7414 69.4947 107.599 112.651C122.458 155.807 169.761 157.771 169.761 157.771Z" fill="#F4E8D8"/>
<path d="M292.27 142.242C303.62 131.228 305.172 121.845 311.57 110.872C317.968 99.8997 324.758 93.8892 324.758 93.8892C324.758 93.8892 320.619 93.8827 310.412 103.109C301.327 111.321 292.27 130.345 292.27 130.345C294.317 120.872 293.717 108.922 293.717 108.922C281.818 135.03 240.309 153.505 228.578 147.485C228.58 147.485 259.519 174.024 292.27 142.242Z" fill="#F4E8D8"/>
<path d="M266.72 98.9204C268.675 98.9204 303.477 82.7621 305.035 67.1407C306.208 55.371 303.862 37.7154 275.321 28.691C242.942 18.453 229.578 23.5913 217.068 27.1207C217.068 27.1207 251.864 22.021 273.367 37.3223C309.314 62.9046 266.72 98.9204 266.72 98.9204Z" fill="#F4E8D8"/>
<path d="M250.689 57.7253C250.689 57.7253 227.622 36.1471 204.946 39.6787C189.101 42.1469 147.864 52.3012 141.609 77.3422C137.326 94.4973 156.465 101.275 156.465 101.275C156.465 101.275 144.345 94.6047 150.21 78.1262C156.076 61.6478 192.434 43.9922 215.502 45.5625C238.569 47.1328 250.689 57.7253 250.689 57.7253Z" fill="#F4E8D8"/>
<path d="M134.182 79.3035C134.182 79.3035 115.026 96.566 126.754 106.768C138.483 116.969 162.723 108.338 162.723 108.338C162.723 108.338 145.521 109.908 137.701 100.1C129.882 90.2891 134.182 79.3035 134.182 79.3035Z" fill="#F4E8D8"/>
<path d="M96.4552 136.388C96.4552 136.388 68.306 124.03 74.7578 99.9018C81.2097 75.7739 92.3516 86.955 92.3516 86.955C92.3516 86.955 90.0055 64.5927 102.32 57.5296C114.635 50.4665 119.328 54.9798 119.328 54.9798C119.328 54.9798 125.193 48.7029 128.124 49.8801C129.427 50.4042 129.609 51.3902 129.412 52.3268C129.147 53.5813 121.494 57.6521 120.304 58.1182C116.862 59.4694 113.91 60.6487 106.816 67.9267C96.4209 78.5901 92.8868 93.8763 93.5225 106.965C94.6956 131.091 96.4552 136.388 96.4552 136.388Z" fill="#F4E8D8"/>
<path d="M131.837 84.4033C131.837 84.4033 137.311 74.9879 130.272 73.4176C123.234 71.8473 122.844 86.7576 122.844 86.7576C122.844 86.7576 120.498 83.2261 116.979 89.503C113.46 95.7798 121.279 105.197 126.753 106.765C132.229 108.336 129.491 89.5051 131.837 84.4033Z" fill="#F4E8D8"/>
<path d="M296.138 76.949C296.138 76.949 307.721 75.5999 313.438 62.5306C318.717 50.4666 313.438 42.5206 307.28 40.757C301.121 38.9912 296.138 41.6398 296.138 41.6398C296.138 41.6398 301.417 26.3386 288.222 24.5728C275.027 22.807 275.32 28.693 275.32 28.693C275.32 28.693 270.921 22.2184 264.765 19.5719C258.606 16.9233 258.899 25.4578 258.899 25.4578C258.899 25.4578 253.034 18.9833 244.825 20.7491C236.616 22.5149 236.83 24.5213 240.642 24.8156C244.455 25.1098 267.353 25.1507 282.307 40.4519C297.262 55.7532 296.138 76.949 296.138 76.949Z" fill="#F4E8D8"/>
<path d="M171.715 51.0552C171.715 51.0552 184.715 34.5768 202.6 32.2224C216.908 30.3385 209.724 40.394 211.787 39.2855C217.261 36.3426 224.12 33.7497 226.84 35.363C231.141 37.9129 227.427 41.0513 227.427 41.0513C227.427 41.0513 239.742 47.9168 241.501 51.6438C241.696 52.6255 231.31 43.8417 217.848 42.8171C202.405 41.6399 171.715 51.0552 171.715 51.0552Z" fill="#F4E8D8"/>
<path d="M136.828 126.11C136.828 126.11 136.141 123.603 135.356 121.807C134.604 120.088 134.028 121.281 133.662 122.975C133.279 124.752 133.459 127.452 133.453 128.097C133.446 128.743 136.717 128.376 136.828 126.11Z" fill="#1D2538"/>
<path d="M143.775 147.363C145.654 146.631 149.68 141.707 148.878 138.3C148.075 134.893 147.274 129.843 146.223 127.955C146.223 127.955 146.059 124.376 145.718 122.453C145.38 120.533 144.875 120.447 144.203 121.375C143.53 122.303 142.64 125.465 142.64 125.465C142.64 125.465 138.16 123.665 134.551 125.231C130.941 126.797 129.839 129.252 129.541 131.347L129.432 131.499C129.432 131.499 125.479 132.479 123.618 133.248C121.758 134.017 121.195 134.975 122.039 136.981C122.882 138.988 123.023 139.991 124.166 140.728C125.309 141.464 130.357 143.071 132.947 143.454C132.947 143.454 134.048 148.139 134.929 149.389C135.811 150.641 141.897 148.098 143.775 147.363Z" fill="#273150"/>
<path d="M144.346 141.578C144.346 141.578 149.679 141.707 148.878 138.3C148.077 134.893 147.275 129.843 146.224 127.955C146.224 127.955 146.059 124.376 145.718 122.453C145.38 120.533 144.875 120.447 144.203 121.375C143.531 122.303 142.64 125.465 142.64 125.465C142.64 125.465 138.16 123.665 134.551 125.231C134.551 125.231 138.736 125.338 140.363 126.904C141.989 128.47 144.012 134.882 144.012 134.882C144.012 134.882 139.427 140.485 139.703 140.878C140.583 142.13 144.346 141.578 144.346 141.578Z" fill="#1D2538"/>
<path d="M135.932 126.165C135.932 126.165 135.409 123.716 135.033 122.09C134.609 120.262 133.725 121.313 133.359 123.008C132.976 124.784 132.77 126.608 132.764 127.254C132.759 127.901 136.058 127.746 135.932 126.165Z" fill="#273150"/>
<path d="M135.208 130.301C135.487 129.499 135.282 128.697 134.749 128.51C134.216 128.322 133.556 128.82 133.276 129.622C132.996 130.423 133.202 131.225 133.735 131.413C134.268 131.6 134.928 131.102 135.208 130.301Z" fill="#121721"/>
<path d="M121.651 135.183C121.517 136.292 122.077 136.801 122.358 137.426C122.741 138.279 125.076 136.683 125.213 135.574C125.348 134.466 125.361 132.906 124.043 133.151C123.124 133.323 121.786 134.075 121.651 135.183Z" fill="#121721"/>
<path d="M138.482 141.98C138.482 141.98 133.403 144.598 133.084 143.4C130.541 143.054 126.441 141.722 126.441 141.722L133.315 141.718L138.482 141.98Z" fill="#1D2538"/>
<path d="M162.581 145.26C162.386 144.624 161.798 141.157 161.044 139.924C160.293 138.691 158.396 135.858 156.127 135.939C156.127 135.939 157.431 134.296 161.511 136.296C165.591 138.294 166.162 144.283 166.207 144.79C166.404 147.054 163.135 147.073 162.581 145.26Z" fill="#1D2538"/>
<path d="M134.291 175.91C134.655 174.842 136.084 173.708 136.084 173.708C136.221 173.467 136.697 172.984 136.733 172.754C137.018 170.997 137.795 166.202 137.84 165.435C137.936 163.841 137.232 159.094 137.362 155.444C137.493 151.795 143.022 154.664 143.277 158.19C143.459 160.703 141.716 170.988 141.534 171.994L140.184 175.28C139.685 175.981 138.3 176.479 136.876 176.548C135.455 176.612 133.935 176.954 134.291 175.91Z" fill="#1D2538"/>
<path d="M158.631 155.715C157.252 155.257 155.11 156.45 155.086 158.411C155.067 160.08 162.63 166.677 162.63 166.677L163.053 168.022C163.053 168.022 161.987 169.257 162.443 169.921C162.55 170.078 164.008 169.82 165.183 169.583C166.044 169.409 166.656 168.997 166.654 168.582L166.65 168.06L167.095 166.08L161.889 160.643C161.891 160.645 160.515 156.342 158.631 155.715Z" fill="#1D2538"/>
<path d="M139.317 142.038C139.317 142.038 145.024 137.943 150.035 140.195C154.516 142.207 156.558 142.547 161.554 142.622C164.692 142.669 166.848 153.75 166.197 155.906C165.02 159.936 151.159 160.293 149.382 160.353C144.146 160.531 139.769 157.842 137.609 156.815C135.672 155.893 132.818 150.553 135.241 146.487C136.166 144.936 137.232 143.256 139.317 142.038Z" fill="#273150"/>
<path d="M140.74 142.452C144.001 139.842 145.022 137.946 150.035 140.195C154.515 142.208 157.906 142.614 162.9 142.766C168.554 142.94 167.794 152.474 166.133 156.559C164.872 159.661 151.159 160.293 149.384 160.353C149.384 160.353 154.179 157.238 153.944 155.023C153.71 152.809 148.209 149.554 148.209 149.554C145.559 146.854 139.584 143.378 140.74 142.452Z" fill="#1D2538"/>
<path d="M143.748 175.555C143.742 174.591 146.109 172.26 146.094 172.024C145.852 168.037 144.855 164.263 144.696 163.354C144.373 161.489 142.271 158.329 141.548 154.299C140.85 150.416 147.747 152.321 148.65 156.798C149.17 159.38 150.455 168.254 150.784 170.677C150.831 171.018 150.81 171.364 150.722 171.699L149.346 174.642C149.185 175.487 147.854 176.213 146.225 176.309C144.596 176.406 143.759 176.868 143.748 175.555Z" fill="#273150"/>
<path d="M166.267 151.717C164.546 150.143 160.719 152.211 160.021 152.852C159.289 153.524 162.487 157.749 162.647 158.34C162.814 158.957 169.9 162.877 171.338 164.024C172.895 165.266 171.593 166.971 172.522 167.504C172.993 167.775 176.921 166.948 176.671 165.401C176.435 163.94 174.89 161.64 174.851 161.524C174.776 161.298 168.693 156.561 168.547 156.267C168.408 155.979 166.777 152.186 166.267 151.717Z" fill="#1D2538"/>
<path d="M149.071 138.465C149.071 138.465 150.105 139.567 150.366 140.538C150.366 140.538 147.217 142.822 141.541 145.537C138.499 146.991 133.8 148.327 133.8 148.327L133.117 145.769C133.119 145.767 142.718 143.239 149.071 138.465Z" fill="#992C29"/>
<path d="M133.154 145.795C133.154 145.795 131.504 149.191 131.769 150.899L136.027 152.267C136.027 152.267 134.374 147.296 133.154 145.795Z" fill="#C93F37"/>
<path d="M133.154 145.795C134.413 147.051 136.027 152.267 136.027 152.267C136.027 152.267 133.807 150.493 133.58 149.81C133.353 149.126 133.154 145.795 133.154 145.795Z" fill="#992C29"/>
<path d="M133.82 147.486C133.82 147.486 136.866 150.169 138.228 150.504L138.581 148.235C138.583 148.235 136.376 147.116 133.82 147.486Z" fill="#992C29"/>
<path d="M204.949 106.958L185.009 105.781C179.353 105.023 179.411 97.2595 179.537 91.481L179.796 71.3808C179.912 65.7698 183.093 61.9375 188.744 61.9375H205.141C211.482 61.9375 215.307 65.744 215.307 71.9371L216.872 97.4099C216.872 103.865 211.471 107.848 204.949 106.958Z" fill="#634874"/>
<path d="M184.185 67.9826C186.028 63.7142 180.936 59.8261 176.083 58.1484C169.195 55.7682 168.379 54.4987 165.556 53.0251C162.088 51.2142 159.146 50.5482 157.044 52.1357C154.944 53.7232 154.488 56.4728 155.732 57.6715C158.667 60.5049 160.067 61.1364 163.802 63.8152C170.644 68.7194 174.298 69.7849 176.509 71.2692C180.215 73.7589 181.981 73.0887 184.185 67.9826Z" fill="#A86243"/>
<path d="M185.627 68.6377C187.47 64.3693 160.066 61.1364 163.802 63.813C170.643 68.7172 174.297 69.7826 176.508 71.267C180.216 73.7589 183.425 73.7438 185.627 68.6377Z" fill="#D77E5B"/>
<path d="M161.158 46.8361C159.668 48.995 157.294 52.707 159.304 54.7262C160.754 56.1805 160.131 57.6391 162.274 56.5951C164.682 55.4201 166.172 49.9273 166.236 49.7962C167.368 47.4956 162.665 44.6557 161.158 46.8361Z" fill="#7A4630"/>
<path d="M169.83 34.6453C169.83 34.6453 160.09 41.9791 157.532 44.8512C155.002 47.6932 152.799 51.1603 154.266 55.0656C155.156 57.4372 156.179 59.0418 159.347 58.0107C162.984 56.8271 165.784 51.6651 167.251 48.3784C169.218 43.9769 171.744 41.7557 173.236 40.2198C175.15 38.2499 175.002 32.0289 169.83 34.6453Z" fill="#A86243"/>
<path d="M183.563 33.1267L183.736 36.0869L181.829 36.6089L180.324 34.0697L183.563 33.1267Z" fill="#273150"/>
<path d="M168.059 38.3722L170.289 34.7977C170.289 34.7977 174.986 33.0341 177.694 32.8343C180.401 32.6345 181.938 33.9127 181.938 33.9127L182.167 39.152C182.193 39.7427 181.804 40.2798 181.271 40.3915L180.438 40.5655L179.156 40.5032L179.106 41.2056C179.083 41.5579 178.858 41.8651 178.548 41.9725L176.867 42.5504L174.367 43.0982C174.367 43.0982 172.481 42.6191 172.68 41.356C172.879 40.0929 169.2 42.5074 168.059 38.3722Z" fill="#A86243"/>
<path d="M165.232 38.1771L167.071 41.3112L171.695 39.814C172.095 39.6851 172.314 39.133 172.157 38.6432C171.98 38.0847 171.494 37.799 171.044 37.9859L167.889 38.871L167.277 37.4768L165.232 38.1771Z" fill="#273150"/>
<path d="M161.844 26.9852C157.151 28.751 137.017 34.8324 137.017 34.8324C136.886 35.8141 137.147 39.9321 137.864 40.3897C137.864 40.3897 140.797 44.3122 158.519 40.5207C179.211 36.0934 200.428 27.3525 200.428 27.3525L200.09 21.6879C200.092 21.69 166.534 25.2194 161.844 26.9852Z" fill="#B44C29"/>
<path d="M160.474 23.7822C155.739 25.4277 139.623 30.551 137.277 34.147C135.444 36.9568 141.708 39.541 164.383 34.2458C187.059 28.9506 196.052 24.2075 199.374 22.6394C202.696 21.0691 194.975 19.0434 180.673 18.2915C177.398 18.1175 170.64 20.2506 160.474 23.7822Z" fill="#F08650"/>
<path d="M137.93 36.4669L145.488 33.8505L138.972 37.382L137.93 36.4669Z" fill="#B44C29"/>
<path d="M180.853 18.502L168.195 22.6715C168.197 22.6694 180.827 19.054 180.853 18.502Z" fill="#B44C29"/>
<path d="M154.904 32.5768C156.957 31.5951 148.313 34.2652 143.957 36.1083C143.957 36.1083 152.851 33.5563 154.904 32.5768Z" fill="#B44C29"/>
<path d="M191.166 26.3963L190.188 25.2191L193.51 25.711L191.166 26.3963Z" fill="#B44C29"/>
<path d="M156.371 36.4991L157.837 34.9309L159.595 36.2048L156.371 36.4991Z" fill="#B44C29"/>
<path d="M173.073 25.1484C173.632 25.969 172.326 27.273 169.432 28.2869C165.277 29.7412 159.72 30.0419 159.05 28.3578C158.419 26.7681 162.886 24.9057 167.155 24.3579C170.203 23.9648 172.53 24.3515 173.073 25.1484Z" fill="#B44C29"/>
<path d="M172.806 24.4608C173.275 25.058 171.933 26.175 169.101 27.1868C165.036 28.639 159.725 29.3027 159.218 28.0418C158.738 26.8517 163.131 25.0559 167.234 24.2997C170.165 23.7605 172.35 23.8808 172.806 24.4608Z" fill="#F08650"/>
<path d="M205.652 62.4104C206.485 59.4825 210.982 61.2397 213.228 62.6553C216.801 64.9044 216.426 66.5757 218.847 67.8431C223.22 70.133 235.321 78.5194 232.018 82.3366C228.717 86.1539 223.175 82.7598 218.851 80.0553C215.756 78.1198 210.263 73.9739 207.172 70.9385C205.886 69.6754 204.82 65.3383 205.652 62.4104Z" fill="#A86243"/>
<path d="M231.262 87.9369C232.854 85.3183 234.49 82.9596 232.328 80.3367C228.941 76.2316 226.285 78.4786 224.009 81.2905C221.772 84.0573 221.783 84.981 219.741 87.765C217.684 90.5684 213.726 94.5962 213.726 94.5962C213.726 94.5962 210.376 97.6036 211.972 99.8613C213.657 102.246 214.847 102.271 216.712 101.251C219.433 99.7646 230.063 89.9089 231.262 87.9369Z" fill="#A86243"/>
<path d="M178.416 159.872C178.367 159.889 178.318 159.912 178.271 159.938C177.562 160.329 171.776 163.47 171.104 164.312C170.554 165.001 170.905 167.543 171.098 168.686C171.158 169.04 171.404 169.33 171.742 169.448C173.112 169.923 176.721 171.186 180.221 170.832C184.609 170.387 184.474 168.729 187.741 167.16C189.877 166.136 191.179 165.474 191.825 165.141C192.136 164.98 192.271 164.669 192.288 164.318L192.467 160.477C192.489 159.996 192.223 159.569 191.752 159.474C189.575 159.027 183.443 158.052 178.416 159.872Z" fill="#29ACE4"/>
<path d="M178.342 159.9C178.342 159.9 171.693 163.544 170.978 164.439C170.263 165.335 170.941 168.424 170.941 168.424C170.941 168.424 175.7 170.323 180.088 169.879C184.477 169.434 184.475 167.967 187.741 166.399C190.271 165.185 191.631 164.482 192.114 164.227C192.245 164.158 192.328 164.027 192.335 163.881L192.534 160.229C192.553 159.894 192.326 159.595 192.001 159.527C190.077 159.112 183.59 157.967 178.342 159.9Z" fill="#13161F"/>
<path d="M175.102 161.629C175.102 161.629 178.424 160.452 181.682 161.955" stroke="#29ACE4" stroke-width="2" stroke-miterlimit="10" stroke-linecap="round" stroke-linejoin="round"/>
<path d="M177.51 160.19C177.51 160.19 180.832 159.013 184.09 160.516" stroke="#29ACE4" stroke-width="2" stroke-miterlimit="10" stroke-linecap="round" stroke-linejoin="round"/>
<path d="M213.831 160.016C217.515 161.309 222.858 162.565 223.108 164.219C223.359 165.861 223.532 167.592 223.389 168.206C223.28 168.67 223.083 168.948 222.727 169.1C221.822 169.489 220.015 170.421 216.361 170.786C214.783 170.945 211.32 170.095 209.207 168.524C207.529 167.276 205.514 165.824 204.759 165.281C204.562 165.139 204.431 164.924 204.397 164.683L204.121 162.823C204.065 162.443 204.256 162.067 204.598 161.893C206.202 161.077 210.825 158.961 213.831 160.016Z" fill="#29ACE4"/>
<path d="M215.317 159.253C218.535 160.471 222.938 162.312 223.189 164.138C223.413 165.783 223.514 166.688 223.469 167.317C223.448 167.624 222.707 167.77 222.345 167.923C221.425 168.312 219.586 169.246 215.872 169.616C214.266 169.775 211.115 169.3 208.971 167.732C207.183 166.426 205.023 164.896 204.351 164.421C204.216 164.327 204.126 164.181 204.098 164.018L203.829 162.413C203.713 161.721 204.105 161.047 204.762 160.81C207.151 159.945 212.455 158.17 215.317 159.253Z" fill="#13161F"/>
<path d="M213.285 162.74C213.285 162.74 216.282 159.994 219.671 161.04" stroke="#29ACE4" stroke-width="2" stroke-miterlimit="10" stroke-linecap="round" stroke-linejoin="round"/>
<path d="M211.199 161.431C211.199 161.431 214.327 158.946 217.715 159.992" stroke="#29ACE4" stroke-width="2" stroke-miterlimit="10" stroke-linecap="round" stroke-linejoin="round"/>
<path d="M212.764 105.197C212.764 105.197 213.73 118.028 215.5 128.346C216.455 133.909 217.349 143.87 217.915 151.124C218.296 156.014 218.608 159.702 218.381 159.87C217.823 160.286 215.123 159.476 210.191 160.716C205.323 161.94 203.32 162.647 203.32 162.647L202.556 160.288C202.556 160.288 202.098 159.191 202.697 154.665C202.875 153.326 201.348 151.249 201.13 149.543C199.739 138.614 197.726 121.916 196.731 110.69C195.213 93.5391 209.579 90.8303 212.764 105.197Z" fill="#F6BE4A"/>
<path opacity="0.5" d="M212.763 105.197C212.763 105.197 213.728 118.028 215.498 128.346C216.588 134.695 217.444 145.537 218.178 153.084C218.332 154.667 218.908 154.8 219.015 156.024C219.144 157.5 218.928 159.62 218.292 159.956C217.603 160.319 215.124 159.476 210.192 160.716C205.324 161.94 203.32 162.647 203.32 162.647L202.556 160.288C202.316 159.169 202.28 158.613 202.697 154.665C202.839 153.341 201.336 151.155 201.13 149.543C199.739 138.573 197.699 121.609 196.731 110.69C195.212 93.5391 209.577 90.8303 212.763 105.197Z" fill="#F6BE4A"/>
<path d="M180.233 104.466C180.233 104.466 179.535 119.1 179.165 127.819C178.898 134.089 178.061 159.848 178.061 159.848C178.061 159.848 179.161 159.422 183.83 159.569L190.53 162.557C190.53 162.557 192.032 162.965 192.428 162.737C192.824 162.511 193.899 161.452 194.004 158.879C194.338 150.697 194.4 132.865 194.278 131.544C194.167 130.352 194.28 116.576 195.175 106.363C195.567 101.889 193.512 98.1423 187.616 96.6149C181.956 95.1499 180.381 99.9618 180.233 104.466Z" fill="#F6BE4A"/>
<path d="M215.499 128.345C216.578 134.635 217.43 145.327 218.157 152.864C218.211 153.408 218.907 154.781 218.958 155.288C219.249 158.168 218.733 159.986 218.168 160.104C217.601 160.22 215.124 159.476 210.192 160.716C205.324 161.94 203.321 162.647 203.321 162.647L202.557 160.288C202.557 160.288 207.437 153.292 210.025 148.746C210.807 147.374 213.818 143.297 214.619 137.86C215.368 132.773 215.064 125.819 215.499 128.345Z" fill="#F6BE4A"/>
<path d="M196.278 112.26C204.951 112.26 211.981 107.1 211.981 100.735C211.981 94.3703 204.951 89.2104 196.278 89.2104C187.605 89.2104 180.574 94.3703 180.574 100.735C180.574 107.1 187.605 112.26 196.278 112.26Z" fill="#F6BE4A"/>
<path opacity="0.5" d="M196.278 112.26C204.951 112.26 211.981 107.1 211.981 100.735C211.981 94.3703 204.951 89.2104 196.278 89.2104C187.605 89.2104 180.574 94.3703 180.574 100.735C180.574 107.1 187.605 112.26 196.278 112.26Z" fill="#F6BE4A"/>
<path d="M193.931 100.587C194.34 98.166 192.578 99.6848 191.21 100.488C190.2 101.083 189.399 101.53 190.341 102.213C191.857 103.313 193.666 102.162 193.931 100.587Z" stroke="#FEED7F" stroke-width="3" stroke-miterlimit="10"/>
<path d="M194.191 100.293C194.191 100.293 196.146 102.548 197.905 102.843C199.665 103.137 199.372 100.488 198.199 99.9984C197.026 99.5086 194.876 99.5086 194.191 100.293Z" stroke="#FEED7F" stroke-width="3" stroke-miterlimit="10"/>
<path d="M194.291 100.097C194.291 100.097 196.733 102.501 196.832 105.835" stroke="#FEED7F" stroke-width="3" stroke-miterlimit="10"/>
<path d="M193.898 104.952C193.898 104.952 194.142 101.274 194.29 100.097" stroke="#FEED7F" stroke-width="3" stroke-miterlimit="10"/>
<path d="M211.036 146.278C213.25 143.982 215.266 138.504 215.108 135.8C215.108 135.8 206.789 147.84 206.507 148.353C205.719 149.79 210.951 146.368 211.036 146.278Z" fill="#F6BE4A"/>
<path d="M184.79 60.7951C184.79 60.7951 183.345 61.1323 182.908 65.6993C182.713 67.7336 181.044 77.136 181.164 83.6342C181.305 91.2515 180.656 101.55 180.656 101.55C180.656 101.55 185.948 99.9837 193.755 99.3822C201.564 98.7808 211.032 102.037 211.032 102.037C214.054 102.538 210.86 93.3567 210.167 89.8595C209.356 85.7673 210.501 78.3647 209.829 72.8462C208.816 64.5479 207.401 62.8809 207.232 62.1999C206.862 60.7048 202.073 60.6597 198.845 60.1957C194.123 59.5212 188.262 60.2924 184.79 60.7951Z" fill="#29ACE4"/>
<path d="M180.902 71.8727C180.902 71.8727 195.563 67.8106 206.998 71.1617L207.584 74.2078C207.584 74.2078 194.195 69.3336 180.51 74.8179L180.902 71.8727Z" fill="#3D4C6D"/>
<path d="M180.412 75.529C180.412 75.529 195.561 71.3659 206.997 74.717L207.583 77.7631C207.583 77.7631 194.29 73.194 180.607 78.6761L180.412 75.529Z" fill="#3D4C6D"/>
<path opacity="0.5" d="M184.789 60.7947C184.789 60.7947 183.344 61.132 182.907 65.699C182.712 67.7332 181.043 77.1357 181.162 83.6338C188.451 72.4119 205.977 99.1327 211.983 99.6569C213.644 99.8008 210.078 93.4058 209.898 87.2019C209.688 79.9519 210.778 73.5977 210.778 73.5977C209.765 65.2994 207.402 62.8849 207.233 62.2018C206.863 60.7067 202.074 60.6615 198.846 60.1975C194.122 59.5209 188.261 60.2921 184.789 60.7947Z" fill="#29ACE4"/>
<path d="M202.013 60.5521C202.234 60.5392 202.013 61.0612 202.013 61.0612C200.466 62.4704 196.839 64.6637 193.614 64.6637C190.43 64.6637 187.75 64.4617 187.059 62.4124C186.761 61.5295 188.168 60.3673 188.168 60.3673C188.168 60.3673 190.696 59.9334 193.609 59.8432C196.452 59.753 201.793 60.565 202.013 60.5521Z" fill="#7A4630"/>
<path d="M193.5 61.7937C190.942 61.7121 191.021 59.7294 191.04 58.4856L191.293 54.4256C191.308 53.4374 192.337 52.619 193.93 52.6663L196.681 52.7092C198.226 52.7565 198.984 53.6093 199.125 54.5674C199.125 54.5674 199.579 58.8465 199.421 60.1805C199.258 61.5338 196.06 61.8732 193.5 61.7937Z" fill="#7A4630"/>
<path d="M211.616 70.1116C211.616 70.1116 212.328 79.1145 211.098 77.9674C206.611 73.7828 207.302 65.9635 207.647 63.8734C207.992 61.7832 208.974 60.9819 210.321 61.8906C212.393 63.2826 211.616 70.1116 211.616 70.1116Z" fill="#A86243"/>
<path d="M183.206 59.5856C184.392 59.6221 185.961 59.9808 185.681 60.6017C184.833 62.4813 183.5 67.1514 182.802 71.0502C181.984 75.6172 181.25 79.7739 180.897 82.9209C180.734 84.3731 179.469 85.5223 178.343 84.7103C178.024 84.4805 177.784 84.1582 177.709 83.7093C177.416 81.9113 176.397 74.0791 180.599 61.2418C181.119 59.6565 181.958 59.5469 183.206 59.5856Z" fill="#634874"/>
<path d="M209.35 60.6037C208.569 59.9936 205.308 59.3256 204.099 59.6994C202.889 60.0731 203.243 65.422 204.75 71.4669C206.207 77.3099 208.461 84.8842 209.665 86.2204C209.902 86.4825 210.236 86.6178 210.581 86.5942C211.304 86.5426 212.456 86.2891 212.396 85.1914C212.31 83.5996 211.041 76.5709 210.058 68.9299C209.224 62.4168 210.108 61.1945 209.35 60.6037Z" fill="#634874"/>
<path d="M213.405 103.242C214.069 103.453 214.803 103.283 215.291 102.785C216.449 101.605 216.926 99.8373 216.768 97.9427C216.573 95.5883 213.739 94.7054 211.913 94.3144C210.468 94.003 209.269 93.6936 208.833 93.5776C208.721 93.5476 208.601 93.5733 208.511 93.6464L203.325 97.861C203.235 97.9341 203.186 98.0458 203.192 98.1618L203.295 100.119C203.305 100.312 203.464 100.462 203.656 100.462C203.973 100.462 204.136 100.841 203.922 101.072L203.804 101.199C203.704 101.307 203.68 101.466 203.74 101.599L204.256 102.718C204.346 102.911 204.579 102.986 204.763 102.881L205.093 102.692C205.234 102.611 205.412 102.634 205.527 102.75L206.456 103.682C206.563 103.79 206.726 103.82 206.863 103.756L207.976 103.24C208.158 103.156 208.37 103.236 208.456 103.418C208.574 103.667 208.779 103.99 209.111 104.155C209.62 104.411 211.778 103.309 212.335 103.017C212.42 102.971 212.519 102.963 212.611 102.993L213.405 103.242Z" fill="#A86243"/>
<path d="M208.355 93.7754L203.327 97.8591C203.237 97.9321 203.187 98.0438 203.194 98.1598L203.297 100.117C203.307 100.31 203.466 100.46 203.658 100.46C203.975 100.46 204.138 100.839 203.924 101.071L203.806 101.197C203.706 101.305 203.682 101.464 203.742 101.597L204.258 102.716C204.348 102.909 204.581 102.985 204.765 102.879L205.095 102.69C205.236 102.609 205.414 102.632 205.529 102.748L206.458 103.681C206.565 103.788 206.728 103.818 206.865 103.754L207.978 103.238C208.16 103.154 208.372 103.234 208.458 103.416C208.575 103.666 208.781 103.988 209.113 104.153C209.599 104.398 211.587 103.403 212.251 103.058C212.381 102.989 212.458 102.847 212.443 102.699L212.27 100.946C212.217 100.402 211.97 99.8934 211.577 99.5153L210.913 98.8773C210.481 98.4627 210.228 97.8956 210.209 97.2962L210.177 96.3597C210.162 95.9171 210.02 95.4875 209.768 95.1245L208.877 93.8442C208.757 93.6766 208.518 93.6422 208.355 93.7754Z" fill="#D77E5B"/>
<path d="M203.805 46.7805C203.522 54.3806 201.942 56.7651 196.903 56.851C193.093 56.9155 190.002 52.342 190.002 46.7805C190.002 41.2189 193.093 36.71 196.903 36.71C200.714 36.71 204.057 39.9386 203.805 46.7805Z" fill="#273150"/>
<path d="M201.68 45.0577C201.643 40.0719 201.102 37.2191 195.607 36.8131C192.738 36.6026 189.915 36.8647 188.251 37.7282C186.749 38.5101 185.841 39.726 185.317 42.9976C184.921 45.4616 184.364 49.7235 185.186 53.8501C185.713 56.4944 189.093 57.4955 192.072 57.7017C199.766 58.2344 200.948 56.183 201.427 52.544C202.073 47.6183 201.692 47.1049 201.68 45.0577Z" fill="#7A4630"/>
<path d="M200.685 48.0758C200.638 43.7538 198.867 41.8763 193.92 41.5089C191.339 41.3178 186.253 42.6518 186.015 45.5131C185.76 48.6107 185.39 51.3088 185.938 53.9897C186.409 56.2947 188.873 57.1024 191.557 57.2914C198.484 57.7769 200.062 55.4225 200.471 52.269C200.82 49.5838 200.704 49.8502 200.685 48.0758Z" fill="#A96344"/>
<path d="M187.07 37.655C186.609 37.9343 186.432 38.2114 186.106 39.9943C186.038 40.3702 186.727 38.9181 187.348 38.351C187.969 37.7839 187.825 38.5443 191.075 38.4648C194.324 38.3854 198.931 37.8247 198.931 37.8247L199.382 42.3315L201.061 46.2454L202.073 44.0844C202.225 40.2478 201.536 38.0137 199.025 37.1674C194.429 35.6164 188.759 36.6282 187.07 37.655Z" fill="#273150"/>
<path d="M195.219 41.597C195.161 42.3574 194.804 42.9439 194.418 42.9138C194.033 42.8837 193.763 42.25 193.812 41.4896C193.862 40.7205 194.221 40.1126 194.615 40.1427C195.007 40.1727 195.277 40.8279 195.219 41.597Z" fill="#102342"/>
<path d="M193.652 40.0825L195.59 39.4659" stroke="#273150" stroke-miterlimit="10" stroke-linecap="round" stroke-linejoin="round"/>
<path d="M189.784 41.7879C189.759 42.5054 189.446 43.0575 189.087 43.0296C188.725 43.0016 188.447 42.4044 188.464 41.687C188.481 40.963 188.793 40.3916 189.162 40.4196C189.532 40.4475 189.81 41.064 189.784 41.7879Z" fill="#102342"/>
<path d="M189.594 40.0824L187.854 39.584" stroke="#273150" stroke-miterlimit="10" stroke-linecap="round" stroke-linejoin="round"/>
<path d="M204.139 48.3205C203.634 50.3763 202.182 51.8198 200.883 51.6093C200.883 51.6093 200.923 46.9478 200.904 46.0585C200.891 45.5 201.212 43.7772 202.597 44.0049C203.978 44.2304 204.661 46.1938 204.139 48.3205Z" fill="#7A4630"/>
<path d="M203.406 49.7878C203.333 50.284 202.864 50.6471 202.359 50.6062C201.854 50.5654 201.494 50.1337 201.561 49.6374C201.625 49.1369 202.096 48.7631 202.61 48.804C203.121 48.8469 203.479 49.2894 203.406 49.7878Z" fill="#E2D6C9"/>
<path d="M223.923 90.0398C223.923 90.0398 218.371 90.1322 215.783 89.1247C213.195 88.1194 213.925 77.4173 219.071 76.0081C224.951 74.397 232.017 77.8383 235.926 80.6051C239.835 83.3719 238.246 87.5093 232.591 89.4598C226.852 91.4382 223.923 90.0398 223.923 90.0398Z" fill="#1689CB"/>
<path d="M236.022 85.0111C236.022 87.7607 225.63 87.9004 222.46 87.9004C219.291 87.9004 216.723 85.6706 216.723 82.9209C216.723 80.1713 219.291 77.9415 222.46 77.9415C225.628 77.9394 236.022 82.2615 236.022 85.0111Z" fill="#992C29"/>
<path d="M233.91 86.7447C233.91 86.7447 248.017 91.563 256.228 103.595C263.258 113.897 273.169 107.257 279.035 110.003C284.9 112.748 249.924 119.446 243.881 121.087C236.648 123.048 215.244 98.8087 219.251 92.1408C224.093 84.0789 233.91 86.7447 233.91 86.7447Z" fill="#1689CB"/>
<path d="M237.331 89.896C237.402 90.229 244.997 93.5049 249.809 101.013C260.039 116.967 272.746 106.637 278.609 109.382C284.472 112.127 282.779 119.21 282.779 119.21C282.779 119.21 273.005 116.464 270.658 124.309C268.312 132.154 247.97 133.265 241.927 134.904C234.694 136.865 218.061 133.929 218.061 133.929C218.061 133.929 211.783 107.26 219.707 89.5029C221.107 86.3645 230.98 87.1486 230.98 87.1486L237.331 89.896Z" fill="#992C29"/>
<path d="M225.7 66.6121C225.7 66.6121 223.101 65.7421 220.502 69.2199C218.46 71.9524 217.422 74.4356 219.443 77.8147C220.014 78.7706 217.711 78.9747 219.154 83.0304C220.665 87.2773 229.26 87.4728 232.147 85.4449C232.147 85.4449 237.73 90.1773 243.985 86.7961C248.194 84.5212 242.446 78.4892 242.446 78.4892C242.446 78.4892 245.449 71.9266 238.52 65.4564C233.586 60.8507 228.299 64.0042 225.7 66.6121Z" fill="#273150"/>
<path d="M223.709 73.9435C225.542 73.9435 227.029 71.4141 227.029 68.2939C227.029 65.1737 225.542 62.6443 223.709 62.6443C221.875 62.6443 220.389 65.1737 220.389 68.2939C220.389 71.4141 221.875 73.9435 223.709 73.9435Z" fill="#273150"/>
<path d="M230.856 65.5488C231.826 63.267 231.484 60.9337 230.091 60.3371C228.698 59.7406 226.782 61.1068 225.812 63.3886C224.841 65.6704 225.184 68.0037 226.577 68.6002C227.97 69.1967 229.886 67.8305 230.856 65.5488Z" fill="#273150"/>
<path d="M224.996 68.0403C224.996 68.0403 222.834 66.6354 220.417 69.4903C218 72.3452 217.613 74.8714 219.355 77.7843C219.848 78.6092 217.801 79.3868 219.045 82.884C219.739 84.8302 222.917 85.6272 222.714 85.2642C222.511 84.9011 222.686 83.8764 222.686 83.8764C224.872 85.1868 228.445 85.958 232.214 85.6616C234.331 86.9354 238.236 86.8065 240.76 85.4424C244.388 83.4833 239.432 78.2827 239.432 78.2827C239.432 78.2827 242.023 72.6266 236.048 67.0479C231.795 63.0717 227.237 65.7912 224.996 68.0403Z" fill="#3D4C6D"/>
<path d="M224.639 68.4078C224.639 71.0973 224.866 74.3603 223.284 74.3603C221.704 74.3603 220.422 72.1799 220.422 69.4904C220.422 66.801 221.704 64.6206 223.284 64.6206C224.864 64.6206 224.639 65.7183 224.639 68.4078Z" fill="#3D4C6D"/>
<path d="M228.787 65.5186C227.95 67.4841 226.952 70.2767 225.751 69.7612C224.55 69.2478 224.255 67.235 225.09 65.2694C225.927 63.3039 227.577 62.1267 228.778 62.6401C229.979 63.1556 229.624 63.553 228.787 65.5186Z" fill="#3D4C6D"/>
<path d="M236.689 86.7915C236.689 86.7915 239.117 86.1127 239.513 84.3555C239.513 84.3555 240.361 86.9054 236.689 86.7915Z" fill="#273150"/>
<path d="M239.365 92.7568C239.365 92.7568 243.39 100.681 244.535 102.675C245.68 104.666 242.608 106.986 240.605 106.447C238.601 105.908 234.78 96.5719 233.821 94.5956C232.86 92.6171 236.831 89.5131 239.365 92.7568Z" fill="#F6874E"/>
<path d="M239.922 93.73C239.922 93.73 236.236 86.3425 233.755 86.7335C231.268 87.1245 231.317 88.2501 231.846 90.424C232.629 93.6462 234.774 97.9597 234.774 97.9597C234.774 97.9597 236.908 94.5592 239.922 93.73Z" fill="#C93F37"/>
<path d="M249.55 102.222C249.55 102.222 244.564 101.895 243.391 101.502C242.218 101.109 238.063 103.023 239.775 105.818C241.175 108.106 248.832 107.223 250.136 106.701C251.44 106.179 251.992 102.679 249.55 102.222Z" fill="#F6874E"/>
<path d="M262.42 49.5492C262.42 49.5492 254.546 90.7163 254.452 91.3565C254.358 91.9966 254.275 92.5723 254.275 92.5723C254.144 92.8709 253.825 92.9203 252.658 92.6518L247.66 91.7797L254.636 48.0262C254.671 47.8028 258.851 44.0564 258.851 44.0564C258.99 44.0435 259.166 43.8416 259.517 44.2562L262.332 48.7694C262.499 49.1131 262.454 49.3688 262.42 49.5492Z" fill="#F6BE4A"/>
<path d="M262.419 49.5492C262.419 49.5492 254.546 90.7163 254.452 91.3565C254.358 91.9966 254.274 92.5723 254.274 92.5723C254.143 92.8709 254.696 92.9375 253.531 92.6668L261.546 49.0938C261.546 49.0938 259.165 43.8394 259.519 44.254L262.334 48.7673C262.498 49.1131 262.453 49.3688 262.419 49.5492Z" fill="#F6874E"/>
<path d="M258.201 69.9328L258.61 68.2615C258.661 68.1412 258.436 68.0704 258.203 68.1348L256.619 68.573C256.478 68.6117 256.411 68.6998 256.471 68.7664L257.869 70.0553C257.97 70.167 258.145 70.0553 258.201 69.9328Z" fill="#F6874E"/>
<path d="M252.973 58.3632L254.101 57.5877L253.259 56.6554L252.973 58.3632Z" fill="#F6874E"/>
<path d="M260.63 56.2642L259.299 54.9796L260.962 54.8722L260.63 56.2642Z" fill="#F6874E"/>
<path d="M259.159 44.0627L250.584 92.1405" stroke="#F4E8D8" stroke-miterlimit="10"/>
<path d="M251.74 66.1971L252.772 66.3775L253.667 65.1015L253.033 63.8255L255.24 61.7955L256.084 61.0007" stroke="#F4E8D8" stroke-miterlimit="10"/>
<path d="M248.814 108.342C248.793 108.408 248.296 108.642 247.406 108.406C246.361 108.129 246.453 107.409 246.453 107.409L248.219 92.0974L253.091 92.8815L248.814 108.342Z" fill="#1D2538"/>
<path d="M246.619 112.971C248.045 113.338 249.381 112.286 249.573 110.696C249.758 109.186 248.831 107.772 247.527 107.469C246.238 107.171 244.971 108.054 244.669 109.502C244.352 111.025 245.211 112.608 246.619 112.971ZM247.381 108.947C247.869 109.119 248.229 109.796 248.182 110.473C248.135 111.164 247.681 111.585 247.174 111.398C246.671 111.211 246.32 110.503 246.388 109.826C246.455 109.164 246.898 108.775 247.381 108.947Z" fill="#1D2538"/>
<path d="M246.484 111.985C247.291 112.208 248.054 111.6 248.176 110.657C248.199 110.473 248.195 110.288 248.169 110.112C248.186 110.23 248.191 110.352 248.182 110.475C248.135 111.167 247.681 111.588 247.174 111.401C246.671 111.214 246.32 110.505 246.388 109.828C246.454 109.167 246.898 108.78 247.381 108.95C247.683 109.057 247.936 109.356 248.073 109.729C247.887 109.205 247.491 108.789 246.994 108.662C246.234 108.466 245.498 109.01 245.337 109.901C245.174 110.819 245.682 111.764 246.484 111.985Z" fill="#F6BE4A"/>
<path d="M248.155 110.025C248.153 110.01 248.151 109.993 248.146 109.979C248.151 109.996 248.153 110.01 248.155 110.025Z" fill="#F6BE4A"/>
<path d="M248.11 109.844C248.103 109.82 248.095 109.796 248.086 109.77C248.095 109.794 248.103 109.818 248.11 109.844Z" fill="#F6BE4A"/>
<path d="M248.091 108.383C248.119 108.383 248.146 108.393 248.17 108.411C248.346 108.548 248.487 108.698 248.587 108.862C248.626 108.922 248.6 109.003 248.534 109.042C248.468 109.081 248.382 109.064 248.346 109.003C248.26 108.866 248.138 108.735 247.986 108.617C247.928 108.572 247.924 108.49 247.975 108.434C248.003 108.398 248.048 108.38 248.091 108.383Z" fill="#F4E8D8"/>
<path d="M248.567 102.106C247.67 102.106 247.041 102.389 247.041 102.389L247.923 94.9073C247.983 94.0996 248.18 91.7538 248.18 91.7538C248.18 91.7538 252.78 92.424 253.36 92.598C253.36 92.598 252.733 95.1457 252.521 95.8653L250.588 102.366C250.588 102.368 249.464 102.106 248.567 102.106Z" fill="#C73F37"/>
<path d="M251.2 100.305L250.928 101.205C250.928 101.205 249.376 101.074 247.51 101.074C247.512 101.074 248.075 100.537 251.2 100.305Z" fill="#1D2538"/>
<path d="M247.037 102.447C247.037 102.447 249.601 102.426 250.443 102.862L250.115 103.932C250.115 103.932 247.499 103.201 246.949 103.201L247.037 102.447Z" fill="#C73F37"/>
<path d="M247.354 99.7643L247.39 99.47C247.39 99.47 249.349 99.3583 250.65 99.7729L247.354 99.7643Z" fill="#1D2538"/>
<path d="M251.613 98.7868L251.853 98.0242C251.853 98.0242 249.248 97.4571 247.533 98.1338C247.533 98.1338 250.68 98.0242 251.613 98.7868Z" fill="#1D2538"/>
<path d="M252.52 95.8674L252.129 97.167C252.129 97.167 249.571 96.1252 247.717 96.4732L247.987 94.1295C247.987 94.1295 249.926 94.9157 252.52 95.8674Z" fill="#1D2538"/>
<path d="M252.923 94.3059L253.114 93.627C253.114 93.627 250.68 92.4585 248.604 92.9676C248.604 92.9676 252.669 93.7323 252.923 94.3059Z" fill="#1D2538"/>
<path d="M243.953 88.0077C244.098 87.9454 244.263 87.9261 244.422 87.954L258.646 90.1473C258.828 90.186 259.008 90.491 259.517 91.2579C259.86 91.7734 260.02 92.4372 259.44 92.71C258.68 93.0688 257.837 93.6767 257.524 93.5843L243.876 91.1462C243.666 91.1054 243.011 90.5769 242.743 90.3578C242.439 90.1086 242.016 89.6296 241.757 89.2236C241.564 88.9228 241.684 88.5276 242.009 88.3879L243.953 88.0077Z" fill="#C73F37"/>
<path d="M243.597 87.3996C243.751 87.333 243.92 87.3137 244.087 87.3437L258.53 89.9194C258.568 89.928 259.568 91.0278 259.44 91.4381C259.311 91.8484 257.575 92.5745 257.575 92.5745C257.575 92.5745 242.852 90.1858 242.721 90.0075C242.479 89.6767 242.079 89.3415 241.807 88.9183C241.606 88.6047 241.732 88.1923 242.071 88.0462L243.597 87.3996Z" fill="#F6874E"/>
<path d="M243.597 87.3996C243.751 87.333 243.92 87.3137 244.087 87.3437L245.894 89.3974L257.575 92.5745C257.575 92.5745 242.852 90.1858 242.721 90.0075C242.364 89.653 242.079 89.3415 241.807 88.9183C241.606 88.6047 241.732 88.1923 242.071 88.0462L243.597 87.3996Z" fill="#F6BE4A"/>
<path d="M251.796 68.004L251.162 71.7697L255.715 78.4655L256.407 74.7922L251.796 68.004Z" fill="#F6BE4A"/>
<path d="M251.026 72.8804L250.846 74.3304L255.397 81.0262L255.636 79.6664L251.026 72.8804Z" fill="#F6BE4A"/>
<path d="M246.043 87.7562L246.465 88.3534C246.606 88.5639 246.649 88.5854 246.865 88.4458L247.552 88.0226L246.043 87.7562Z" fill="#C73F37"/>
<path d="M247.867 101.493C247.732 101.818 248.079 101.921 248.569 101.975C248.922 102.013 249.575 101.657 249.575 101.657C249.575 101.657 250.164 101.85 250.41 101.998C250.536 102.073 249.425 101.975 249.031 101.998C248.638 102.022 247.745 102.4 247.745 102.4C247.719 102.402 247.693 102.406 247.67 102.415C247.37 102.522 247.182 102.84 247.238 103.337C247.246 103.403 247.278 103.453 247.327 103.498C247.39 103.556 247.503 103.579 247.46 103.758C247.402 103.992 247.133 104.161 247.135 104.331C247.135 104.428 247.323 105.244 247.387 105.317L248.252 105.351C248.252 105.351 247.259 105.465 247.188 105.921C247.066 106.711 247.736 107.126 248.201 107.051C248.777 106.958 248.772 107.242 249.269 107.328C249.269 107.328 250.493 107.461 250.656 107.033C250.827 106.585 251.373 106.234 251.542 105.601C251.641 105.229 251.641 104.49 251.911 104.045C252.439 103.178 251.789 102.924 251.934 102.366C252.063 101.882 252.401 101.848 252.23 101.279C252.095 100.836 251.632 100.711 251.294 100.587C250.956 100.464 250.063 100.389 249.179 100.488C249.181 100.492 248.004 101.169 247.867 101.493Z" fill="#CE6D3E"/>
<path d="M247.866 101.493C247.731 101.817 248.074 101.97 248.564 102.023C248.917 102.062 249.572 101.656 249.572 101.656C249.572 101.656 250.161 101.849 250.407 101.998C250.533 102.073 249.422 101.974 249.028 101.998C248.635 102.021 247.742 102.399 247.742 102.399C247.716 102.402 247.691 102.406 247.667 102.414C247.367 102.522 247.153 102.868 247.211 103.362C247.22 103.428 247.355 103.592 247.404 103.637C247.466 103.695 247.417 103.77 247.404 103.796C247.297 104.013 247.166 104.06 247.13 104.225C247.044 104.608 247.145 104.962 247.384 105.317L248.292 105.351C248.292 105.351 247.245 105.463 247.185 105.92C247.128 106.361 247.504 106.96 248.007 106.831C248.727 106.646 249.596 106.943 249.688 106.902C250.336 106.605 249.769 105.974 249.983 105.486C250.142 105.125 250.154 104.713 250.321 104.324C250.467 103.987 250.407 103.02 250.407 103.02L251.255 102.255C251.255 102.255 251.227 101.519 251.169 101.235C251.064 100.707 249.701 100.389 249.178 100.488C249.084 100.509 248.003 101.168 247.866 101.493Z" fill="#F6874E"/>
<path d="M246.768 103.448C247.279 104.222 247.93 103.418 247.778 102.243C247.705 101.678 247.528 100.948 246.676 101.199C245.824 101.451 245.854 102.067 246.768 103.448Z" fill="#F6874E"/>
<path d="M254.503 127.69C254.546 128.863 250.128 129.396 248.997 130.981C247.366 133.271 248.773 133.361 233.754 134.494C221.604 135.411 217.796 129.518 217.948 127.035C218.098 124.586 226.808 121.349 235.972 121.338C245.153 121.33 254.413 125.205 254.503 127.69Z" fill="#EC5E4D"/>
<path d="M219.643 135.321C219.643 135.321 217.297 125.762 217.102 122.853C216.908 119.944 226.682 115.788 228.441 120.567C230.201 125.347 230.593 133.035 230.593 136.569C230.593 140.103 230.006 143.22 225.706 143.011C219.421 142.706 221.17 141.583 219.643 135.321Z" fill="#273150"/>
<path d="M219.643 135.321C219.643 135.321 217.297 125.762 217.102 122.853C216.908 119.944 226.682 115.788 228.441 120.567C230.201 125.347 230.593 133.035 230.593 136.569C230.593 140.103 230.006 143.22 225.706 143.011C219.421 142.706 221.17 141.583 219.643 135.321Z" fill="#102441"/>
<path d="M226.515 136.127C223.934 135.508 220.297 137.656 220.554 140.517C220.748 142.7 218.567 143.323 217.101 147.583C215.635 151.842 226.483 154.648 227.461 149.245C228.438 143.843 233.455 137.789 226.515 136.127Z" fill="#273150"/>
<path d="M226.681 135.426C224.1 134.808 220.3 137.656 220.557 140.517C220.752 142.7 222.055 143.965 220.589 148.225C219.123 152.485 226.486 154.65 227.465 149.245C228.439 143.843 233.619 137.089 226.681 135.426Z" fill="#102441"/>
<path d="M227.463 149.245C226.485 154.648 220.622 169.717 220.035 172.417C219.449 175.119 217.495 176.123 217.495 176.123C217.495 176.123 214.819 177.356 214.902 171.266C214.964 166.613 215.639 151.844 217.105 147.584C217.105 147.584 220.819 146.025 223.165 146.65C225.509 147.271 227.463 149.245 227.463 149.245Z" fill="#F6874E"/>
<path d="M227.46 149.245C226.482 154.648 220.619 169.717 220.032 172.417C219.746 173.743 219.414 175.732 218.697 175.786C217.954 175.842 217.654 176.342 217.459 171.689C217.265 167.324 219.121 151.842 220.587 147.583C220.587 147.583 220.816 146.023 223.162 146.648C225.506 147.271 227.46 149.245 227.46 149.245Z" fill="#CE6D3E"/>
<path d="M217.655 169.981C216.582 172.018 214.626 173.218 214.626 173.218C214.626 173.218 213.238 175.682 213.438 176.61C213.566 177.173 214.129 178.608 214.129 178.608C214.129 178.608 214.549 183.603 214.696 184.191C214.915 185.072 223.715 186.481 224.303 186.705C224.892 186.928 224.764 181.959 224.764 181.959C224.764 181.959 220.992 177.285 220.285 175.285C219.59 173.322 218.813 167.786 217.655 169.981Z" fill="#CE6D3E"/>
<path d="M232.547 119.111C230.592 120.773 229.451 124.513 230.918 128.047C232.384 131.581 233.72 137.952 235.088 139.409C236.455 140.865 238.801 142.803 241.539 142.803C244.275 142.803 245.448 138.854 244.96 135.737C244.472 132.62 242.712 123.787 241.345 119.839C239.977 115.891 234.501 117.448 232.547 119.111Z" fill="#102441"/>
<path d="M235.457 137.2C234.487 138.24 234.245 141.679 233.699 143.531C232.965 146.023 232.824 147.909 232.965 151.32C233.108 154.787 233.802 159.274 234.14 161.691C234.834 166.655 233.391 168.501 235.737 168.776C238.083 169.053 237.691 168.221 238.603 165.727C239.515 163.233 242.84 150.211 243.49 147.578C244.141 144.946 244.533 142.036 244.663 139.681C244.794 137.327 238.047 134.423 235.457 137.2Z" fill="#273150"/>
<path d="M235.786 136.893C234.303 137.896 234.11 141.662 234.547 145.698C234.894 148.901 242.842 150.214 243.493 147.582C244.144 144.951 244.535 142.04 244.666 139.686C244.796 137.331 238.601 134.612 235.786 136.893Z" fill="#102441"/>
<path d="M233.165 145.911C232.375 148.489 232.768 152.88 233.882 161.041C234.558 166.007 233.556 169.515 235.902 169.792C238.248 170.069 238.653 170.147 239.126 167.534C239.606 164.886 242.84 150.216 243.491 147.585C243.491 147.585 240.558 145.784 237.823 145.645C235.087 145.505 233.165 145.911 233.165 145.911Z" fill="#F6874E"/>
<path d="M234.547 145.698C234.562 148.643 235.733 157.807 235.868 162.707C236.007 167.77 234.662 169.068 237.009 169.345C239.355 169.622 238.665 170.148 239.128 167.534C239.629 164.694 242.842 150.216 243.493 147.584C243.493 147.584 240.682 145.874 237.824 145.645C236.67 145.55 234.547 145.698 234.547 145.698Z" fill="#CE6D3E"/>
<path d="M234.29 167.002C234.29 167.002 234.02 168.651 233.28 170.385C232.644 171.871 235.953 172.552 237.158 173.659C237.158 173.659 245.907 178.252 248.838 176.797C252.094 175.182 243.064 170.589 245.646 171.998C245.646 171.998 240.172 169.296 239.391 167.219C238.608 165.143 234.29 167.002 234.29 167.002Z" fill="#F6874E"/>
<path d="M235.69 166.731C235.576 169.195 234.5 169.751 234.108 171.208C233.352 174.015 238.903 175.74 238.539 175.523C238.539 175.523 245.804 178.056 248.737 176.602C252.053 174.956 243 170.621 245.642 172C245.642 172 240.168 169.298 239.387 167.221C238.605 165.143 235.793 164.508 235.69 166.731Z" fill="#CE6D3E"/>
<path d="M233.489 169.169C233.628 168.892 233.883 168.651 233.925 168.928C233.97 169.205 234.392 170.267 234.97 170.593C235.546 170.92 242.122 174.516 244.427 173.86C245.834 173.461 244.817 172.187 243.811 171.253C243.169 170.655 242.529 170.198 242.529 170.198C242.529 170.198 245.478 171.865 246.833 172.649C248.188 173.433 251.038 176.114 251.307 177.16C251.579 178.206 241.291 178.337 239.816 177.65C238.342 176.962 236.156 175.001 235.343 174.217C234.593 173.495 233.722 173.818 233.444 173.497C232.814 172.778 233.067 170 233.489 169.169Z" fill="#992C29"/>
<path d="M230.493 86.5619C230.493 86.5619 233.096 85.9733 234.012 87.1505C235.065 88.5059 237.88 91.9881 238.019 94.7592C238.131 96.9675 237.752 98.7333 236.643 101.805C235.733 104.329 234.507 108.204 232.961 108.909C228.252 111.055 224.23 110.705 221.599 109.122C220.62 108.533 219.582 107.04 219.661 103.133C219.696 101.449 219.644 100.884 219.253 94.901C218.728 86.8583 221.892 86.5253 225.112 86.3449C228.329 86.1623 230.493 86.5619 230.493 86.5619Z" fill="#F6BE4A"/>
<path d="M230.148 89.6961L229.635 89.6682C228.714 89.6188 228.008 88.8283 228.059 87.9046L228.423 81.1293C228.472 80.2056 229.26 79.4967 230.181 79.5483L230.694 79.5762C231.615 79.6256 232.321 80.4161 232.27 81.3398L231.906 88.1151C231.854 89.0388 231.069 89.7455 230.148 89.6961Z" fill="#F6874E"/>
<path d="M230.281 86.9509L229.768 86.9229C228.847 86.8735 228.141 86.083 228.192 85.1593L228.556 78.384C228.605 77.4603 229.393 76.7514 230.313 76.8029L230.827 76.8309C231.748 76.8803 232.454 77.6708 232.403 78.5945L232.039 85.3698C231.987 86.2914 231.202 87.0003 230.281 86.9509Z" fill="#CE6D3E"/>
<path d="M214.97 172.95C214.692 173.04 214.101 173.51 213.996 173.785C213.536 174.991 213.149 176.129 213.262 176.844C213.307 177.124 213.575 177.837 213.851 179.19C214.157 180.681 213.951 183.366 214.778 184.496C215.602 185.626 222.64 188.079 224.203 187.785C225.768 187.491 224.882 182.87 224.762 181.961C224.635 181.003 221.208 176.711 219.783 173.519C219.783 173.519 219.795 173.833 220.022 174.632C220.557 176.501 221.6 180.419 220.142 180.563C218.055 180.767 215.06 177.921 214.936 176.496C214.814 175.089 214.585 173.966 214.626 173.676C214.666 173.382 214.97 172.95 214.97 172.95Z" fill="#992C29"/>
<path d="M236.973 124.863L240.956 128.384C241.374 128.715 241.956 128.455 241.873 127.97C241.586 126.305 240.738 123.493 236.973 124.863Z" fill="#EC5E4D"/>
<path d="M219.772 104.478C219.122 105.719 214.104 121.414 218.925 131.875C218.925 131.875 223.172 127.248 229.238 125.996C241.32 123.504 240.277 126.926 240.588 127.83C240.793 128.432 241.444 128.743 242.043 128.537C242.198 128.483 242.371 128.419 242.564 128.341C245.278 127.254 249.998 125.605 254.391 127.164C254.391 127.164 245.869 112.939 234.472 105.844C223.563 99.06 220.423 103.236 219.772 104.478Z" fill="#F6BE4A"/>
<path opacity="0.5" d="M241.432 126.904C241.432 126.904 240.304 118.746 237.481 116.254C237.481 116.254 238.609 118.181 238.609 119.652L237.254 118.746C237.254 118.746 238.658 120.825 239.626 122.939C240.473 124.791 240.852 126.692 241.432 126.904Z" fill="#F6BE4A"/>
<path d="M238.207 73.8574C239.861 81.8464 236.616 84.5702 230.999 84.3941C226.778 84.2609 223.321 81.58 223.045 76.2784C222.767 70.9767 224.991 66.6267 229.158 65.9264C234.66 65.0027 237.13 68.6675 238.207 73.8574Z" fill="#CE6D3E"/>
<path d="M236.27 75.675C236.353 76.0681 236.419 76.444 236.473 76.8027C237.252 82.1495 234.722 84.0012 230.537 83.8745C227.18 83.7713 224.43 81.6855 224.209 77.5589C223.989 73.4323 227.452 70.6633 230.768 70.1199C235.146 69.4002 235.413 71.6343 236.27 75.675Z" fill="#F6874E"/>
<path d="M223.662 80.1232C224.953 79.9237 225.792 78.4182 225.535 76.7607C225.278 75.1031 224.023 73.9211 222.732 74.1206C221.441 74.3201 220.603 75.8255 220.86 77.4831C221.116 79.1407 222.371 80.3227 223.662 80.1232Z" fill="#F6874E"/>
<path d="M223.04 74.0832L224.395 75.5762C224.395 75.5762 224.402 69.3315 229.278 67.6109C233.619 66.0771 235.606 67.7956 235.606 67.7956C235.606 67.7956 233.262 63.9096 227.36 66.4552C222.424 68.584 223.04 74.0832 223.04 74.0832Z" fill="#F6BE4A"/>
<path d="M227.076 74.9488C227.455 74.9488 227.763 74.3717 227.763 73.6599C227.763 72.948 227.455 72.371 227.076 72.371C226.696 72.371 226.389 72.948 226.389 73.6599C226.389 74.3717 226.696 74.9488 227.076 74.9488Z" fill="#273150"/>
<path d="M234.136 74.3968C234.516 74.3968 234.824 73.8197 234.824 73.1079C234.824 72.396 234.516 71.819 234.136 71.819C233.757 71.819 233.449 72.396 233.449 73.1079C233.449 73.8197 233.757 74.3968 234.136 74.3968Z" fill="#273150"/>
<path d="M233.328 71.5441L234.613 70.8374" stroke="#273150" stroke-miterlimit="10" stroke-linecap="round" stroke-linejoin="round"/>
<path d="M228.169 71.9114L226.465 71.4517" stroke="#273150" stroke-miterlimit="10" stroke-linecap="round" stroke-linejoin="round"/>
<path d="M234.961 66.6998C234.961 66.6998 236.198 68.21 237.468 68.8565C238.427 69.3463 239.197 69.4365 239.197 69.4365L239.005 69.0499L239.482 68.6804C239.482 68.6804 237.688 68.4914 235.333 66.4742L234.961 66.6998Z" fill="#EE5D4F"/>
<path d="M234.838 66.5238C234.838 66.5238 235.486 68.3669 236.458 69.4109C237.193 70.1993 237.886 70.5495 237.886 70.5495L237.837 70.122L238.413 69.9394C238.413 69.9394 236.792 69.1467 235.268 66.4401L234.838 66.5238Z" fill="#EE5D4F"/>
<path d="M235.621 67.4969C236.08 67.4153 236.514 64.9642 235.424 64.9127C234.399 64.8633 233.237 64.9965 233.429 65.7719C233.624 66.5474 235.165 67.5785 235.621 67.4969Z" fill="#EE5D4F"/>
<path d="M236.016 66.1028C236.016 66.1028 235.847 65.0523 235.522 65.076C235.196 65.0996 235.487 65.5485 235.571 66.2403C235.656 66.932 236.074 66.5474 236.016 66.1028Z" fill="#F7BC4B"/>
<path d="M235.242 66.9901C235.242 66.9901 235.174 66.5068 235.876 66.0385C236.578 65.5702 237.113 65.3145 237.558 65.5938C238.003 65.8731 238.16 67.0953 237.905 67.7119C237.65 68.3284 236.088 67.8601 235.694 67.6281C235.3 67.3939 235.242 66.9901 235.242 66.9901Z" fill="#EE5D4F"/>
<path d="M237.797 66.5798C237.797 66.5798 237.945 67.5616 237.508 67.7205C236.86 67.959 237.268 66.1008 237.307 65.8086C237.343 65.5143 237.915 65.8774 237.797 66.5798Z" fill="#F7BC4B"/>
<path d="M220.817 99.4832C220.817 99.4832 223.368 105.193 224.533 106.445C225.706 107.708 227.258 109.111 228.784 108.518C230.306 107.928 230.978 104.123 229.906 102.13C228.846 100.162 226.903 94.4866 226.248 93.5908C225.597 92.6993 223.172 93.3309 221.99 94.0505C220.8 94.7723 219.961 97.3501 220.817 99.4832Z" fill="#F6874E"/>
<path d="M227.046 95.1478C227.046 95.1478 224.854 86.2996 221.922 86.6906C219.122 87.0643 218.606 89.4617 218.959 92.7462C219.319 96.1016 220.858 99.6503 220.858 99.6503C220.858 99.6503 221.442 96.4324 227.046 95.1478Z" fill="#EC5E4D"/>
<path d="M226.158 92.2739C226.158 92.2739 224.857 86.2999 221.924 86.6909C219.124 87.0646 218.608 89.462 218.961 92.7465C219.321 96.1019 219.873 96.7528 219.873 96.7528C219.873 96.7528 220.164 94.6347 220.554 93.3609C220.89 92.2675 223.031 91.7584 223.031 91.7584L226.158 92.2739Z" fill="#C93F37"/>
<path d="M243.684 97.4813C243.684 97.4813 239.253 98.3964 236.781 99.2148C234.602 99.9366 230.869 101.157 228.737 102.669C226.585 104.196 226.337 106.379 226.909 107.805C227.486 109.245 230.263 108.387 232.555 107.601C234.837 106.817 243.515 102.652 245.639 101.275C247.745 99.9065 247.201 96.143 243.684 97.4813Z" fill="#CE6D3E"/>
<path d="M234.399 100.031C232.052 100.684 230.869 101.157 228.737 102.669C226.585 104.196 226.337 106.379 226.909 107.805C227.486 109.244 230.263 108.387 232.555 107.601C234.839 106.817 236.464 99.4552 234.399 100.031Z" fill="#F6874E"/>
<path d="M245.192 100.261C245.837 101.146 247.472 101.01 248.022 100.542C248.69 99.9771 249.088 99.4959 249.512 99.4981C249.777 99.4981 250.756 99.6828 251.291 99.9255C251.321 99.9835 251.192 100.211 251.216 100.276C251.248 100.366 251.276 100.42 251.372 100.426C251.98 100.469 252.481 100.067 252.449 99.4293L252.387 98.5808L253.01 97.8247L253.13 95.4552L251.064 93.2255C250.961 93.1159 250.816 93.0579 250.666 93.0686L247.857 93.277C247.688 93.2899 247.534 93.3823 247.444 93.5241L244.895 97.5282C244.893 97.5304 244.548 99.3756 245.192 100.261Z" fill="#CE6D3E"/>
<path d="M251.188 98.7464C251.383 98.959 251.689 99.2834 251.953 99.4896C252.237 99.713 252.471 99.7925 252.451 99.4295L252.389 98.5809L253.166 97.9601C253.166 97.9601 253.346 96.1213 253.286 95.5907C253.126 94.1815 251.045 93.1354 251.045 93.1354C250.861 93.043 250.816 93.0602 250.666 93.071C250.666 93.071 250.004 94.1687 249.964 94.4995C249.923 94.8303 250.533 96.2846 250.533 96.2846C250.533 96.2846 249.867 97.1331 249.831 97.3866C249.743 97.9816 250.512 98.0095 251.188 98.7464Z" fill="#F6874E"/>
<path d="M219.949 94.9957C219.949 94.9957 220.144 93.6724 221.122 93.2793C221.122 93.2793 220.037 96.4521 219.87 96.7529C219.703 97.0536 219.705 95.7325 219.949 94.9957Z" fill="#C93F37"/>
<path d="M219.315 88.4564C218.793 89.9601 216.838 95.0598 214.884 106.308C212.929 117.555 216.057 132.07 217.881 133.641C219.705 135.211 226.09 123.57 239.775 130.829C239.775 130.829 230.388 117.321 225.114 113.631C218.662 109.119 219.184 98.1983 219.966 92.3789C220.749 86.5618 219.315 88.4564 219.315 88.4564Z" fill="#29ACE4"/>
<path d="M214.884 106.31C212.929 117.557 216.057 132.072 217.881 133.643C219.705 135.213 226.09 123.572 239.775 130.831C239.775 130.831 234.811 123.888 231.733 120.296C231.733 120.296 227.768 126.154 226.751 125.941C226.148 125.815 221.216 126.242 218.283 122.713C215.35 119.183 214.884 106.31 214.884 106.31Z" fill="#1689CB"/>
<path d="M218.115 119.566C218.115 119.566 218.278 120.833 219.725 122.964C221.474 125.54 226.755 126.618 226.755 126.618L228.872 125.215C228.872 125.215 225.965 124.975 223.48 123.729C220.994 122.483 218.209 120.356 218.115 119.566Z" fill="#1689CB"/>
<path d="M227.655 86.0226C226.673 85.7949 221.107 85.3352 219.542 88.0827C217.977 90.828 219.249 95.9127 219.249 95.9127C219.249 95.9127 219.54 91.7217 221.644 90.3877C222.863 89.6143 230.042 92.1406 231.076 92.2995C232.981 92.5938 230.588 89.8485 230.588 89.8485C230.588 89.8485 228.927 86.3169 227.655 86.0226Z" fill="#29ACE4"/>
<path d="M232.199 86.3986C231.523 86.5726 229.632 93.0062 231.497 91.8591C231.987 91.5562 234.686 90.7313 237.769 91.0256C239.822 91.2211 241.438 92.3833 241.581 92.1534C242.072 91.3672 235.078 85.6531 232.199 86.3986Z" fill="#1689CB"/>
<path d="M231.417 91.3026C231.606 91.3026 231.759 91.1488 231.759 90.9589C231.759 90.7691 231.606 90.6152 231.417 90.6152C231.228 90.6152 231.074 90.7691 231.074 90.9589C231.074 91.1488 231.228 91.3026 231.417 91.3026Z" fill="#273150"/>
<path d="M177.253 117.341C177.253 117.341 177.484 113.038 175.232 112.789C172.98 112.54 168.181 117.528 167.096 118.058C166.01 118.591 165.154 120.305 164.6 120.836C164.045 121.366 162.555 121.772 161.729 122.438C160.901 123.106 158 125.115 160.081 127.358C162.166 129.605 162.953 130.264 165.826 129.04C168.69 127.817 178.002 119.562 177.253 117.341Z" fill="#1D2436"/>
<path d="M172.792 140.91C172.792 140.91 165.19 138.413 156.474 137.307C152.543 136.809 152.344 142.74 154.943 147.313C156.371 149.829 163.985 151.64 171.028 155.128C176.85 158.011 182.161 162.907 184.578 162.806C189.91 162.58 186.522 143.859 172.792 140.91Z" fill="#48598B"/>
<path d="M165.816 143.548C164.655 143.447 166.749 145.715 167.295 146.71C168.883 149.603 170.183 152.907 171.58 155.004C172.815 156.855 171.949 154.374 170.945 151.223C170.489 149.792 170.146 148.422 169.814 147.485C169.628 146.957 165.816 143.548 165.816 143.548Z" fill="#273150"/>
<path d="M166.059 178.232C166.059 178.232 161.6 181.997 160.039 184.03C158.472 186.068 162.657 188.281 166.371 187.77C170.076 187.26 173.589 185.903 174.844 183.879C176.094 181.862 176.102 181.841 178.061 179.675C180.013 177.519 177.327 172.941 176.22 171.979C175.111 171.018 166.671 174.969 166.059 178.232Z" fill="#EC6141"/>
<path d="M166.176 177.25C166.176 177.25 161.717 181.016 160.157 183.048C158.59 185.086 163.044 186.448 166.758 185.937C170.464 185.428 172.994 184.788 174.248 182.764C175.498 180.747 176.41 180.451 178.369 178.285C180.321 176.129 177.444 171.961 176.338 170.999C175.229 170.036 166.788 173.987 166.176 177.25Z" fill="#13161F"/>
<path d="M163.586 171.229C163.586 171.229 164.944 173.317 164.68 174.167C164.417 175.02 163.614 177.385 166.795 178.457C169.505 179.37 176.071 175.452 178.141 174.079C178.509 173.834 178.753 173.439 178.793 173.02C178.905 171.854 178.967 169.452 177.847 168.03C176.327 166.103 176.526 166.657 174.123 160.305C171.738 153.998 164.124 140.878 163.646 139.531C163.169 138.186 156.976 136.906 155.728 137.054C154.478 137.202 149.634 143.625 149.762 145.395C149.891 147.169 152.635 153.309 154.994 158.525C157.366 163.77 160.277 166.202 160.973 167.706C162.062 170.062 163.586 171.229 163.586 171.229Z" fill="#48598B"/>
<path d="M176.277 166.14C175.158 164.047 175.697 167.186 175.108 169.409C174.77 170.685 177.399 168.232 176.277 166.14Z" fill="#273150"/>
<path d="M163.498 170.587C163.498 170.587 164.842 174.086 165.594 174.346C166.345 174.608 168.595 174.314 170.121 173.529C171.647 172.743 166.223 173.987 163.498 170.587Z" fill="#273150"/>
<path d="M152.131 148.108C152.131 148.108 152.949 146.703 153.598 145.416C154.246 144.13 154.554 148.488 153.152 149.61C151.75 150.733 152.131 148.108 152.131 148.108Z" fill="#273150"/>
<path d="M169.054 148.059L164.668 145.898L159.254 141.552C159.254 141.552 160.521 141.578 161.514 142.276C161.964 142.592 164.329 144.557 165.618 145.586C167.17 146.83 168.574 147.56 169.054 148.059Z" fill="#273150"/>
<path d="M195 118.732C195 118.732 172.539 113.768 176.82 110.494C181.073 107.24 192.941 101.382 197.28 107.682C201.649 114.028 197.633 120.988 195 118.732Z" fill="#1D2436"/>
<path d="M203.636 164.334C203.636 164.334 203.987 163.502 205.03 162.778C206.07 162.057 209.296 162.357 209.872 163.64C210.448 164.926 210.441 173.747 210.441 174.344C210.441 174.943 209.283 177.429 208.232 178.889C207.179 180.354 205.195 180.636 203.446 179.948C201.697 179.261 202.881 176.234 203.354 174.789C203.827 173.349 202.819 165.882 203.636 164.334Z" fill="#EC6141"/>
<path d="M202.953 163.648C202.953 163.648 203.015 163.137 204.057 162.413C205.098 161.691 208.324 161.992 208.899 163.275C209.475 164.561 209.758 173.061 209.758 173.659C209.758 174.258 208.6 176.743 207.549 178.204C206.495 179.669 204.511 179.95 202.762 179.263C201.013 178.576 202.197 175.549 202.67 174.103C203.143 172.662 202.135 165.197 202.953 163.648Z" fill="#13161F"/>
<path d="M197.567 166.967C197.567 166.967 201.472 163.618 203.304 163.537C207.217 163.36 206.312 167.309 206.303 170.03C206.297 172.761 204.186 174.771 203.403 175.293C202.619 175.815 203.985 175.549 201.71 178.662C199.421 181.789 195.358 185.538 192.652 185.92C190.591 186.212 183.677 182.567 187.374 175.13C188.53 172.808 195.491 168.933 197.567 166.967Z" fill="#273150"/>
<path d="M184.931 150.413C184.931 150.413 184.208 168.247 184.505 174.986C184.805 181.785 184.497 184.988 186.137 186.67C187.778 188.356 190.758 188.67 192.847 187.978C194.932 187.286 194.183 186.414 195.844 185.95C197.503 185.488 198.693 180.434 199.117 178.726C199.541 177.022 200.673 160.467 201.114 154.482C201.553 148.547 200.363 145.513 195.523 145.574C190.675 145.638 185.803 146.929 184.931 150.413Z" fill="#273150"/>
<path d="M184.491 153.296C184.491 153.296 184.247 169.876 184.48 176.069C184.718 182.318 184.473 185.259 185.764 186.807C187.057 188.356 189.408 188.646 191.054 188.008C192.698 187.372 196.782 181.147 197.116 179.579C197.45 178.013 198.64 167.341 197.57 157.23C196.994 151.795 196.977 148.987 193.162 149.043C189.341 149.097 185.178 150.093 184.491 153.296Z" fill="#47588A"/>
<path d="M171.475 144.693C172.661 146.246 173.949 147.376 175.514 148.615C175.88 148.905 188.285 154.108 188.285 154.108C188.285 154.108 181.324 151.453 182.291 152.147C186.425 155.109 187.504 157.116 192.327 158.293C193.453 158.568 195.795 156.349 196.465 157.083C198.616 159.438 197.852 163.895 198.029 161.693C198.663 153.833 201.392 150.248 195.488 147.176C189.27 143.941 168.165 140.354 171.475 144.693Z" fill="#273150"/>
<path d="M174.147 140.76C174.329 139.131 173.937 132.833 173.999 124.857C174.061 116.967 174.005 113.835 178.561 111.992C183.094 110.157 188.776 109.614 193.083 112.436C195.08 113.744 195.955 142.394 196.336 144.955C196.717 147.524 192.218 151.737 188.151 151.999C184.077 152.263 173.626 145.442 174.147 140.76Z" fill="#F6BE4A"/>
<path opacity="0.5" d="M184.25 142.601C184.25 142.601 183.604 143.812 183.871 144.976C181.498 143.941 179.162 142.77 178.516 141.948C178.516 141.948 180.601 145.479 183.728 146.656C186.856 147.833 189.722 147.309 189.722 147.309C189.722 147.309 185.256 144.227 184.25 142.601Z" fill="#F6BE4A"/>
<path d="M171.439 143.226C171.439 143.309 171.469 143.389 171.527 143.449C171.993 143.939 173.406 146.057 175.579 146.796C176.161 146.994 177.163 146.566 177.167 146.317L177.178 145.808C177.18 145.685 175.964 145.803 175.857 145.748C175.215 145.408 172.503 143.275 171.373 141.935C171.178 141.703 171.441 142.916 171.439 143.226Z" fill="#F4E8D8"/>
<path d="M180.434 111.141C180.984 110.834 173.727 114.359 176.985 128.941C177.852 132.818 176.992 139.587 177.274 140.899C177.559 142.212 178.435 145.142 177.146 145.806C174.759 147.034 172.499 143.258 171.666 142.412C170.373 141.101 173.032 140.487 172.923 135.656C172.807 130.549 171.101 123.424 171.435 120.524C172.199 113.906 174.374 113.394 175.228 112.789C176.159 112.129 179.768 111.515 180.434 111.141Z" fill="#972B28"/>
<path d="M180.434 111.141C180.642 110.368 176.221 112.677 175.616 113.227C175.025 113.764 174.4 114.505 173.833 115.532C172.015 118.814 176.624 127.22 176.624 127.22C176.624 127.22 176.609 119.179 176.784 117.345C176.958 115.515 180.034 112.636 180.434 111.141Z" fill="#F4E8D8"/>
<path d="M180.582 110.507C180.582 110.507 180.361 111.016 180.385 111.639C180.472 114.144 180.995 121.067 181.926 121.153C182.872 121.239 183.309 121.012 184.495 117.13C184.747 116.303 187.26 110.075 186.47 109.538" stroke="#913636" stroke-miterlimit="10"/>
<path d="M182.101 123.293C182.377 123.293 182.601 122.777 182.601 122.141C182.601 121.506 182.377 120.99 182.101 120.99C181.824 120.99 181.6 121.506 181.6 122.141C181.6 122.777 181.824 123.293 182.101 123.293Z" fill="#29ACE4"/>
<path d="M180.412 108.166L180.558 112.075C180.617 113.701 182.105 114.902 183.811 114.7L184.043 114.672C185.68 114.479 186.879 113.061 186.723 111.51L186.331 107.635C186.147 105.807 184.184 104.688 182.362 105.367C181.155 105.818 180.367 106.948 180.412 108.166Z" fill="#CE6D3E"/>
<path d="M188.673 147.745L188.688 148.072C188.696 148.259 188.767 148.433 188.887 148.562C189.745 149.49 193.404 153.341 195.82 154.252C197.681 154.952 200.177 155.084 201.6 155.094C202.276 155.099 202.897 154.658 203.184 153.969C203.372 153.518 203.135 152.996 202.702 152.907C200.536 152.463 194.667 150.966 189.767 147.067C189.302 146.695 188.643 147.103 188.673 147.745Z" fill="#F4E8D8"/>
<path d="M187.193 109.882C186.525 110.402 183.659 115.607 186.059 122.788C188.477 130.034 186.264 143.052 187.833 146.282C188.28 147.202 194.692 153.053 197.126 153.156C198.729 153.223 201.039 153.483 202.642 153.694C203.395 153.792 204.556 152.325 204.581 151.556C204.661 149.124 204.581 143.982 202.95 138.824C200.724 131.78 200.553 111.601 194.906 108.926C190.594 106.883 187.861 109.362 187.193 109.882Z" fill="#972B28"/>
<path d="M194.773 140.122C194.773 140.122 199.309 142.895 200.512 143.286L199.831 144.914C199.831 144.914 194.751 142.141 193.957 141.073L194.773 140.122Z" fill="#F4E8D8"/>
<path d="M187.065 109.495C188.401 108.328 192.746 107.731 194.048 108.562C194.784 109.031 191.304 107.555 189.538 111.55C187.35 116.495 186.562 124.364 186.562 124.364C186.562 124.364 185.374 123.715 184.95 117.423C184.668 113.224 185.727 110.663 187.065 109.495Z" fill="#F4E8D8"/>
<path d="M198.225 137.271C198.225 137.271 198.763 135.701 198.519 134.966C198.275 134.231 197.639 136.732 196.907 137.761C196.554 138.255 197.999 137.439 198.225 137.271Z" fill="#972B28"/>
<path d="M172.848 137.63L172.668 138.498L173.824 137.827L174.036 136.796L172.848 137.63Z" fill="#F4E8D8"/>
<path d="M186.172 154.991C186.172 154.991 188.126 156.136 189.43 157.182C190.734 158.228 193.21 159.047 193.21 159.047C193.21 159.047 190.081 159.569 186.172 154.991Z" fill="#273150"/>
<path d="M171.156 127.561C172.162 130.556 168.889 134.156 165.809 134.186C163.964 134.206 162.577 133.353 161.341 131.647C160.875 131.003 161.16 130.255 160.821 129.551C160.56 129.005 159.646 128.504 159.473 127.98C158.488 124.988 160.192 122.827 163.242 122.528C165.441 122.314 165.895 123.776 167.102 124.324C167.536 124.522 168.846 124.56 169.253 124.814C170.722 125.74 170.664 126.099 171.156 127.561Z" fill="#C93F37"/>
<path d="M170.557 129.48C170.709 131.033 169.733 132.58 168.371 132.934C167.008 133.286 165.783 132.307 165.635 130.749C165.488 129.194 166.153 126.93 167.511 126.582C168.866 126.232 170.405 127.929 170.557 129.48Z" fill="#F4E8D8"/>
<path d="M169.853 129.637C169.965 130.805 169.254 131.972 168.265 132.236C167.276 132.502 166.385 131.763 166.278 130.59C166.171 129.42 166.854 127.102 168.353 127.495C169.34 127.753 169.742 128.47 169.853 129.637Z" fill="#CE6D3E"/>
<path d="M167.98 127.757C167.426 128.195 166.98 129.106 166.824 130.502C166.668 131.898 169.686 133.408 169.686 133.408C169.686 133.408 171.568 134.107 172.822 131.08C173.321 129.875 170.748 127.643 170.767 126.874C170.838 124.083 168.89 127.037 167.98 127.757Z" fill="#F6874E"/>
<path d="M170.374 127.364C170.374 127.364 169.396 127.478 169.593 128.215C169.787 128.949 171.327 130.258 172.941 129.867C174.555 129.476 170.374 127.364 170.374 127.364Z" fill="#CE6D3E"/>
<path d="M160.894 128.541C160.764 127.69 160.852 126.876 160.83 126.711C160.766 126.221 160.049 128.608 160.049 128.608C160.926 129.881 160.961 128.981 160.894 128.541Z" fill="#972B28"/>
<path d="M166.661 124.421C166.661 124.421 164.803 122.754 164.219 125.403C164.217 125.403 165.293 124.715 166.661 124.421Z" fill="#972B28"/>
<path d="M194.924 127.141C193.59 124.975 192.233 122.223 190.835 120.069C189.44 117.921 190.242 111.096 193.28 109.921C196.309 108.75 196.874 110.196 199.67 114.256C202.476 118.333 206.804 129.029 205.466 132.715C204.754 134.676 198.479 135.675 194.924 127.141Z" fill="#1D2436"/>
<path d="M204.604 129.147C203.112 126.992 201.209 125.501 197.318 126.286C195.378 126.676 195.132 128.526 195.132 128.526C195.132 128.526 192.921 128.324 191.913 129.226C190.902 130.131 187.479 129.226 187.588 133.737C187.698 138.249 188.8 140.322 191.806 140.897C194.809 141.473 199.501 137.533 199.501 137.533C199.501 137.533 201.156 137.855 203.354 135.759C205.572 133.645 206.974 132.569 204.604 129.147Z" fill="#C93F37"/>
<path d="M195.633 127.918C195.633 127.918 197.403 126.354 199.143 127.897C199.334 128.066 196.996 127.596 195.633 127.918Z" fill="#972B28"/>
<path d="M187.689 135.645C187.46 139.724 192.33 139.318 192.33 139.318C192.33 139.318 191.397 139.75 191.977 139.909C192.662 140.096 193.861 140.3 194.593 139.787C197.209 137.95 198.667 133.441 195.466 131.594C194.88 131.257 194.706 133.804 194.621 133.07C194.529 132.29 193.703 131.083 192.24 130.316C191.425 129.886 187.972 130.588 187.689 135.645Z" fill="#972B28"/>
<path d="M200.104 130.502C200.104 130.502 199.265 129.62 198.184 129.226C197.103 128.833 195.211 128.393 195.211 128.393C195.508 128.303 200.222 128.011 200.104 130.502Z" fill="#972B28"/>
<path d="M189.877 130.657C189.138 130.702 186.792 130.939 186.612 135.112C186.469 138.481 189.459 139.265 189.459 139.265C189.459 139.265 191.636 139.454 192.628 138.608C193.963 137.467 194.072 134.754 193.244 132.432C192.818 131.241 190.615 130.612 189.877 130.657Z" fill="#F4E8D8"/>
<path d="M188.393 131.432C187.656 131.465 185.516 131.063 185.404 135.024C185.314 138.218 188.307 139.005 188.307 139.005C188.307 139.005 190.478 139.213 191.452 138.422C192.764 137.357 192.828 134.784 191.965 132.569C191.522 131.43 189.129 131.4 188.393 131.432Z" fill="#CE6D3E"/>
<path d="M173.777 117.233C173.777 117.233 174.627 116.075 177.053 116.151C180.441 116.256 184.08 117.276 185.163 118.812C185.966 119.949 186.011 121.102 186.011 121.102C186.011 121.102 187.088 121.207 187.621 121.998C187.957 122.496 187.807 128.762 187.807 128.762C187.749 129.869 187.199 130.629 186.077 130.614L185.127 130.601L173.546 129.083C173.551 129.083 172.671 118.591 173.777 117.233Z" fill="#634874"/>
<path d="M169.786 125.991C169.916 128.999 172.487 129.525 173.228 129.649C175.229 129.985 186.007 130.93 186.007 130.93C186.007 130.93 187.887 130.208 186.814 130.133C186.557 130.116 181.238 128.923 179.496 128.605C176.526 128.064 175.52 126.12 175.52 126.12C175.52 126.12 169.726 124.619 169.786 125.991Z" fill="#7E6391"/>
<path d="M185.618 139.943L186.504 131.108C186.453 130.653 186.095 130.462 184.687 130.214C184.687 130.214 184.006 130.152 183.473 130.098C183.214 130.073 182.589 130.199 182.563 130.981L182.12 140.987C182.081 141.353 183.389 141.097 183.389 141.097C185.322 140.856 185.577 140.768 185.618 139.943Z" fill="#634874"/>
<path d="M175.463 127.413C173.599 128.247 172.385 128.496 170.675 127.667C169.403 127.123 169.052 124.342 169.084 123.47L169.108 120.471C169.176 118.516 170.837 116.933 172.817 116.933C175.666 116.931 177.154 119.158 177.077 121.977L176.977 123.665C176.953 124.535 176.319 127.031 175.463 127.413Z" fill="#634874"/>
<path d="M182.998 140.923L183.242 130.672C183.285 129.832 183.338 129.693 182 129.581L180.793 129.572C179.798 129.626 179.305 130.133 179.275 130.958L179.691 139.151C179.671 140.609 179.483 141.015 180.508 141.097C182.217 141.232 182.979 141.424 182.998 140.923Z" fill="#7E6391"/>
<path d="M178.614 130.908C178.738 132.18 179.004 133.557 180.766 133.995C180.841 134.015 182.223 133.927 182.223 133.927L181.643 130.556C181.654 129.892 181.301 129.54 180.881 129.493L179.393 129.39C178.848 129.327 178.533 130.064 178.614 130.908Z" fill="#7E6391"/>
<path d="M180.094 130.934C180.199 132.144 180.503 133.503 182.025 133.922C182.089 133.939 182.158 133.939 182.224 133.927C183.13 134.002 184.577 133.43 184.587 132.797L184.733 130.217C184.69 130.109 180.882 129.609 180.882 129.609C180.411 129.551 180.024 130.133 180.094 130.934Z" fill="#634874"/>
<path d="M174.781 121.633C174.681 122.685 173.728 123.484 172.653 123.418C171.579 123.351 170.791 122.443 170.894 121.388C170.997 120.335 171.951 119.54 173.024 119.607C174.094 119.676 174.882 120.582 174.781 121.633Z" fill="#1D2436"/>
<path d="M174.193 121.076C174.054 122.539 172.731 123.652 171.237 123.56C169.74 123.467 168.647 122.202 168.79 120.737C168.933 119.276 170.258 118.17 171.748 118.264C173.238 118.359 174.332 119.618 174.193 121.076Z" fill="#F6BE4A"/>
<path d="M173.056 120.859C172.968 121.781 172.134 122.479 171.194 122.421C170.254 122.363 169.563 121.566 169.655 120.645C169.745 119.725 170.579 119.027 171.517 119.087C172.455 119.147 173.144 119.94 173.056 120.859Z" fill="#1D2436"/>
<path d="M177.432 117.242C178.798 118.189 179.138 119.59 178.783 122.056C178.753 122.258 178.916 122.438 179.155 122.475L184.152 123.302C184.453 123.349 185.226 123.566 185.258 123.308C185.391 122.266 185.562 119.291 183.392 118.18C182.366 117.656 179.89 116.939 177.869 116.561C177.372 116.468 177.049 116.975 177.432 117.242Z" fill="#BB83C3"/>
<path d="M177.9 116.368C177.9 116.368 181.516 117.845 180.015 122.857" stroke="#634874" stroke-width="2" stroke-miterlimit="10" stroke-linecap="round" stroke-linejoin="round"/>
<path d="M180.488 116.939C180.488 116.939 183.483 118.922 182.042 123.094" stroke="#634874" stroke-width="2" stroke-miterlimit="10" stroke-linecap="round" stroke-linejoin="round"/>
<path d="M182.451 117.519C182.451 117.519 185.129 119.487 183.988 123.311" stroke="#634874" stroke-width="2" stroke-miterlimit="10" stroke-linecap="round" stroke-linejoin="round"/>
<path d="M178.664 123.57L185.227 124.715" stroke="#BB83C3" stroke-width="2" stroke-miterlimit="10" stroke-linecap="round" stroke-linejoin="round"/>
<path d="M191.022 132.84C191.022 132.84 190.495 130.756 190.196 130.185C190.048 129.903 190.082 129.342 189.742 128.518C189.374 127.624 189.553 126.902 189.16 126.193C188.826 125.592 187.282 126.687 187.344 127.819C187.379 128.46 187.456 129.71 187.627 130.335C187.82 131.044 185.18 130.483 185.18 130.483C184.9 130.384 183.087 130.513 182.791 130.545L180.92 130.571C180.143 130.823 180.013 131.39 180.038 132.208C180.051 132.646 182.149 132.399 183.037 132.543C183.684 132.646 185.124 132.404 185.146 132.498C185.146 132.498 180.201 133.74 179.929 134.378C179.394 135.643 179.548 137.299 179.745 137.546C180.329 138.279 180.374 138.335 180.374 138.335C180.374 138.335 180.34 139.278 181.025 139.74C182.059 140.438 185.351 141.018 185.351 141.018C185.351 141.018 189.234 139.703 189.883 139.086C190.532 138.472 191.341 137.969 191.424 136.008C191.504 134.053 191.022 132.84 191.022 132.84Z" fill="#F6874E"/>
<path d="M179.925 134.376C179.401 135.645 179.544 137.297 179.741 137.544C180.326 138.277 180.371 138.333 180.371 138.333C180.371 138.333 180.336 139.276 181.021 139.737C182.055 140.436 185.348 141.016 185.348 141.016L184.166 138.762C184.166 138.762 183.117 133.613 182.809 133.437C182.5 133.261 180.118 133.912 179.925 134.376Z" fill="#CE6D3E"/>
<path d="M171.088 114.78L170.951 107.908L167.787 110.776L164.174 105.479L163.802 111.74L158.574 111.803L162.629 114.554L160.693 116.922L165.895 117.16C166.357 117.18 163.412 115.914 163.412 115.914L163.75 114.668L162.622 112.741L164.994 112.628L165.446 110.136L167.62 112.258L169.849 110.817C169.847 110.815 171.09 114.829 171.088 114.78Z" fill="#F6BE4A"/>
<path d="M167.726 131.566L170.118 133.78C170.158 133.817 170.207 133.841 170.263 133.847C170.785 133.905 174.026 133.86 175.09 133.69C175.555 133.617 176.683 132.459 177.888 131.276C178.265 130.904 178.534 130.687 178.918 130.221C179.13 129.963 179.183 129.626 178.894 129.461C178.894 129.461 178.421 129.196 178.16 129.392C178.046 129.478 178.038 129.446 178.066 129.381C178.123 129.246 178.066 129.089 177.929 129.033C177.663 128.926 177.256 128.831 176.856 129.033C176.27 129.327 176.334 129.246 176.334 129.246C176.334 128.969 176.023 128.64 175.617 128.625C175.073 128.603 174.641 128.921 174.557 128.988C174.546 128.997 173.81 129.162 173.157 129.473C172.382 129.843 171.235 129.36 170.631 129.13C169.52 128.709 167.799 128.664 167.639 131.362C167.639 131.437 167.671 131.514 167.726 131.566Z" fill="#F6874E"/>
<path d="M190.808 98.9176C189.738 105.014 187.713 106.144 187.713 106.144C178.885 109.401 171.53 105.727 170.783 100.402C169.817 95.0574 169.171 92.2541 178.146 90.5119C187.064 88.7826 191.75 93.5644 190.808 98.9176Z" fill="#1D2436"/>
<path d="M189.81 97.7366C188.898 102.903 181.241 101.412 181.241 101.412C179.694 101.006 174.364 99.9278 173.36 97.06C172.503 94.6154 171.382 91.8636 178.996 90.3857C185.929 89.0409 190.613 93.1954 189.81 97.7366Z" fill="#3D4C6D"/>
<path d="M188.797 100.553C188.797 100.553 189.431 98.8838 188.842 97.0751C188.842 97.0751 191.169 97.6143 188.797 100.553Z" fill="#1D2436"/>
<path d="M175.517 92.6586C175.517 92.6586 170.249 94.0635 169.66 95.0903C169.071 96.1192 171.702 107.545 173.864 110.013C176.03 112.488 185.631 108.407 187.356 105.698C188.769 103.483 188.08 102.727 187.731 99.8205C187.369 96.7916 184.711 95.5263 184.186 94.4845C183.298 92.708 175.517 92.6586 175.517 92.6586Z" fill="#CE6D3E"/>
<path d="M186.652 101.363C187.04 103.345 185.1 107.874 181.11 109.096C177.105 110.325 173.866 110.011 172.212 105.751C170.514 101.38 174.83 95.4145 178.801 94.2245C182.756 93.0408 185.3 96.9032 186.652 101.363Z" fill="#F6874E"/>
<path d="M175.097 100.897C175.255 101.593 174.981 101.981 174.619 102.067C174.255 102.153 173.941 101.906 173.784 101.208C173.626 100.512 173.793 99.8763 174.157 99.7904C174.517 99.7066 174.938 100.201 175.097 100.897Z" fill="#34273A"/>
<path d="M180.224 95.8097L179.209 96.8429" stroke="#34273A" stroke-miterlimit="10" stroke-linecap="round" stroke-linejoin="round"/>
<path d="M174.787 98.9523L173.361 99.0446" stroke="#34273A" stroke-miterlimit="10" stroke-linecap="round" stroke-linejoin="round"/>
<path d="M179.603 98.4261C179.772 97.8848 180.684 96.8343 181.836 97.1565C181.836 97.1565 180.293 98.6366 179.764 99.1328C179.683 99.208 179.571 98.5292 179.603 98.4261Z" fill="#34273A"/>
<path d="M188.554 98.1447C188.591 99.9083 187.769 101.455 186.718 101.592C185.667 101.73 184.787 100.407 184.755 98.6409C184.723 96.8772 185.547 95.3434 186.594 95.2081C187.64 95.0706 188.518 96.3853 188.554 98.1447Z" fill="#F6874E"/>
<path d="M180.865 90.433C180.865 90.433 172.418 99.6163 169.532 100.742C166.638 101.872 168.09 93.9903 172.332 91.1956C176.551 88.4202 180.865 90.433 180.865 90.433Z" fill="#1D2436"/>
<path d="M181.414 90.2677C181.414 90.2677 181.516 90.91 179.782 92.0678C176.781 94.0721 171.008 97.1611 169.546 97.7304C167.23 98.6326 169.017 93.4985 172.327 91.1355C175.852 88.62 181.414 90.2677 181.414 90.2677Z" fill="#3D4C6D"/>
<path d="M175.631 92.8496C175.631 92.8496 173.287 96.3769 170.84 97.5025C170.838 97.5046 176.637 94.9505 175.631 92.8496Z" fill="#1D2436"/>
<path d="M183.014 92.7703C183.014 92.7703 183.617 97.1052 184.484 98.2115L186.192 99.7517L185.037 93.608L183.014 92.7703Z" fill="#3D4C6D"/>
</svg>
