<svg width="434" height="244" viewBox="0 0 434 244" fill="none" xmlns="http://www.w3.org/2000/svg">
<path d="M179.723 129.333L172.441 128.057C172.202 125.827 171.717 123.661 170.998 121.584L177.046 117.352C177.454 117.068 177.554 116.501 177.267 116.096L168.869 104.158C168.585 103.748 168.018 103.649 167.613 103.937L161.564 108.172C159.852 106.786 157.974 105.598 155.955 104.612L157.234 97.3446C157.32 96.8609 156.988 96.3906 156.499 96.3051L142.095 93.7829C141.605 93.6974 141.136 94.0281 141.051 94.5096L139.772 101.777C137.537 102.018 135.363 102.502 133.279 103.219L129.037 97.1826C128.758 96.7731 128.191 96.6741 127.783 96.9621L115.813 105.337C115.402 105.62 115.303 106.187 115.592 106.592L119.836 112.627C118.454 114.337 117.256 116.209 116.27 118.225L108.986 116.949C108.499 116.863 108.028 117.19 107.942 117.68L105.414 132.051C105.328 132.537 105.66 133.012 106.147 133.097L113.431 134.373C113.668 136.598 114.155 138.765 114.874 140.844L108.824 145.074C108.413 145.364 108.314 145.922 108.603 146.332L117.001 158.272C117.288 158.677 117.854 158.776 118.255 158.493L124.304 154.263C126.02 155.638 127.898 156.832 129.917 157.818L128.64 165.079C128.555 165.565 128.884 166.033 129.373 166.118L143.777 168.64C144.267 168.726 144.738 168.397 144.821 167.911L146.098 160.651C148.331 160.41 150.505 159.924 152.586 159.213L156.83 165.243C157.115 165.646 157.681 165.745 158.087 165.463L170.057 157.089C170.465 156.805 170.565 156.243 170.278 155.833L166.036 149.797C167.423 148.087 168.616 146.215 169.602 144.203L176.884 145.479C177.371 145.564 177.842 145.229 177.928 144.743L180.456 130.372C180.539 129.882 180.21 129.418 179.723 129.333ZM140.322 146.066C132.1 144.626 126.602 136.81 128.045 128.604C129.488 120.4 137.323 114.915 145.548 116.355C153.77 117.795 159.268 125.611 157.825 133.817C156.382 142.021 148.545 147.506 140.322 146.066Z" fill="#F4E8D8"/>
<path d="M278.854 55.9761L266.619 57.8188C265.05 54.4101 263.126 51.2263 260.875 48.3126L268.214 38.3833C268.71 37.7173 268.566 36.7656 267.894 36.2728L248.199 21.7873C247.529 21.2878 246.58 21.4318 246.09 22.1046L238.75 32.0338C235.295 30.7423 231.677 29.8536 227.952 29.3631L226.102 17.1501C225.981 16.3401 225.205 15.7686 224.384 15.8923L200.181 19.5418C199.36 19.6656 198.789 20.4396 198.914 21.2496L200.763 33.4626C197.346 35.0308 194.155 36.9546 191.23 39.1978L181.278 31.8741C180.615 31.3746 179.665 31.5186 179.171 32.1913L164.643 51.8338C164.145 52.5021 164.289 53.4538 164.964 53.9443L174.918 61.2658C173.635 64.7128 172.735 68.3218 172.248 72.0411L160.011 73.8861C159.19 74.0098 158.617 74.7748 158.741 75.6006L162.397 99.7453C162.521 100.56 163.297 101.14 164.118 101.017L176.355 99.1716C177.918 102.576 179.846 105.757 182.094 108.673L174.751 118.598C174.255 119.275 174.397 120.214 175.071 120.713L194.766 135.199C195.436 135.687 196.388 135.545 196.873 134.881L204.213 124.959C207.671 126.23 211.288 127.128 215.018 127.621L216.865 139.822C216.989 140.637 217.763 141.208 218.581 141.085L242.782 137.437C243.603 137.314 244.176 136.542 244.052 135.725L242.205 123.523C245.619 121.955 248.81 120.029 251.733 117.797L261.683 125.114C262.348 125.605 263.3 125.461 263.791 124.797L278.319 105.152C278.816 104.486 278.674 103.539 277.999 103.042L268.049 95.7156C269.337 92.2663 270.232 88.6596 270.724 84.9471L282.958 83.1043C283.777 82.9806 284.345 82.1998 284.221 81.3853L280.566 57.2406C280.444 56.4148 279.67 55.8523 278.854 55.9761ZM225.647 105.996C210.42 108.291 196.212 97.8351 193.911 82.6453C191.611 67.4533 202.091 53.2783 217.316 50.9833C232.543 48.6883 246.751 59.1441 249.051 74.3338C251.352 89.5258 240.874 103.701 225.647 105.996Z" fill="#F4E8D8"/>
<path d="M125.143 117.617C125.578 117.617 125.578 116.942 125.143 116.942C124.708 116.942 124.708 117.617 125.143 117.617Z" fill="#F4E8D8"/>
<path d="M179.785 114.719L186.555 114.746L196.69 108.511L217.494 93.4834L196.309 93.3147L179.785 114.719Z" fill="#702022"/>
<path d="M194.38 91.1255L177.586 111.544L179.798 114.746L196.814 94.01L194.38 91.1255Z" fill="#972D29"/>
<path d="M194.381 91.1255L215.282 90.8442L217.494 93.4835L196.814 94.01L194.381 91.1255Z" fill="#C83F37"/>
<path d="M209.098 107.132L208.344 116.852L206.955 135.172L225.376 133.482L229.767 112.359L209.098 107.132Z" fill="#CE6D3E"/>
<path d="M196.521 97.6415L185.148 110.867L188.446 134.224L207.698 134.548L210.242 113.146L196.521 97.6415Z" fill="#F2864F"/>
<path d="M196.521 97.6415L185.148 110.867L188.446 134.224L199.645 134.436L200.603 103.932L196.521 97.6415Z" fill="#CE6D3E"/>
<path opacity="0.5" d="M205.084 109.447L196.521 97.6415L193.33 101.352L194.974 134.316L203.537 134.726L205.084 109.447Z" fill="#C16840"/>
<path d="M207.479 132.199C207.497 131.891 207.336 131.631 207.118 131.619C206.9 131.606 206.709 131.845 206.691 132.153C206.673 132.46 206.835 132.72 207.052 132.733C207.27 132.746 207.461 132.507 207.479 132.199Z" fill="#3E424B"/>
<path d="M207.985 125.3C208.003 124.992 207.841 124.733 207.624 124.72C207.406 124.707 207.215 124.946 207.197 125.254C207.179 125.561 207.34 125.821 207.558 125.834C207.776 125.847 207.967 125.608 207.985 125.3Z" fill="#3E424B"/>
<path d="M208.745 116.871C208.763 116.564 208.601 116.304 208.384 116.291C208.166 116.278 207.975 116.517 207.957 116.825C207.939 117.133 208.1 117.392 208.318 117.405C208.535 117.418 208.727 117.179 208.745 116.871Z" fill="#3E424B"/>
<path d="M227.335 119.805C227.419 119.571 227.347 119.331 227.173 119.269C227 119.207 226.791 119.347 226.707 119.581C226.623 119.815 226.695 120.055 226.869 120.117C227.042 120.179 227.251 120.039 227.335 119.805Z" fill="#3E424B"/>
<path d="M225.919 126.082C226.003 125.848 225.931 125.609 225.757 125.547C225.584 125.485 225.375 125.624 225.291 125.858C225.207 126.092 225.279 126.332 225.453 126.394C225.626 126.456 225.835 126.316 225.919 126.082Z" fill="#3E424B"/>
<path d="M224.505 133.034C224.589 132.8 224.517 132.56 224.343 132.498C224.169 132.436 223.961 132.576 223.877 132.81C223.793 133.043 223.865 133.283 224.039 133.345C224.212 133.407 224.421 133.268 224.505 133.034Z" fill="#3E424B"/>
<path d="M188.571 126.533C188.587 126.26 188.444 126.029 188.251 126.018C188.058 126.007 187.889 126.219 187.873 126.492C187.857 126.765 188 126.995 188.193 127.006C188.385 127.018 188.555 126.806 188.571 126.533Z" fill="#3E424B"/>
<path d="M187.7 118.621C187.716 118.352 187.575 118.125 187.384 118.114C187.194 118.102 187.027 118.312 187.011 118.581C186.995 118.85 187.137 119.077 187.327 119.088C187.517 119.1 187.684 118.89 187.7 118.621Z" fill="#3E424B"/>
<path d="M186.594 111.814C186.61 111.551 186.471 111.329 186.285 111.318C186.098 111.307 185.934 111.511 185.919 111.774C185.903 112.037 186.042 112.259 186.228 112.27C186.415 112.281 186.579 112.077 186.594 111.814Z" fill="#3E424B"/>
<path d="M191.178 105.751C191.196 105.443 191.035 105.183 190.817 105.171C190.6 105.158 190.408 105.397 190.39 105.705C190.372 106.012 190.534 106.272 190.751 106.285C190.969 106.298 191.16 106.058 191.178 105.751Z" fill="#3E424B"/>
<path d="M195.991 100.61C196.009 100.302 195.847 100.042 195.63 100.03C195.412 100.017 195.221 100.256 195.203 100.563C195.185 100.871 195.346 101.131 195.564 101.144C195.782 101.156 195.973 100.917 195.991 100.61Z" fill="#3E424B"/>
<path d="M189.372 132.935C189.386 132.697 189.261 132.496 189.092 132.486C188.922 132.476 188.774 132.661 188.76 132.899C188.746 133.137 188.871 133.339 189.041 133.349C189.21 133.358 189.358 133.173 189.372 132.935Z" fill="#3E424B"/>
<path d="M197.27 132.696C197.285 132.442 197.151 132.227 196.971 132.217C196.79 132.206 196.632 132.404 196.617 132.658C196.602 132.912 196.736 133.127 196.916 133.138C197.097 133.148 197.255 132.951 197.27 132.696Z" fill="#3E424B"/>
<path d="M212.932 112.059L210.555 115.977L230.231 115.428L232.401 111.6L212.932 112.059Z" fill="#972D29"/>
<path d="M196.871 94.1157L217.154 93.7085L232.4 111.6L212.93 112.059L196.871 94.1157Z" fill="#C83F37"/>
<path d="M194.475 97.0565L210.554 115.977L212.934 112.057L196.872 94.1157L194.475 97.0565Z" fill="#972D29"/>
<path d="M196.54 120.286C199.115 120.286 201.202 117.582 201.202 114.247C201.202 110.911 199.115 108.208 196.54 108.208C193.966 108.208 191.879 110.911 191.879 114.247C191.879 117.582 193.966 120.286 196.54 120.286Z" fill="#F6BE4A"/>
<path d="M197.374 119.869C199.488 119.869 201.201 117.352 201.201 114.247C201.201 111.141 199.488 108.624 197.374 108.624C195.26 108.624 193.547 111.141 193.547 114.247C193.547 117.352 195.26 119.869 197.374 119.869Z" fill="#102441"/>
<path d="M199.952 95.6389C200.05 95.4475 199.884 95.1672 199.581 95.013C199.278 94.8587 198.953 94.8889 198.855 95.0803C198.757 95.2718 198.923 95.552 199.226 95.7063C199.529 95.8606 199.854 95.8304 199.952 95.6389Z" fill="#4D525B"/>
<path d="M213.969 111.561C214.067 111.37 213.901 111.09 213.598 110.935C213.296 110.781 212.971 110.811 212.873 111.003C212.775 111.194 212.941 111.474 213.244 111.629C213.546 111.783 213.871 111.753 213.969 111.561Z" fill="#4D525B"/>
<path d="M230.2 110.966C230.298 110.774 230.132 110.494 229.829 110.34C229.526 110.186 229.201 110.216 229.103 110.407C229.005 110.599 229.171 110.879 229.474 111.033C229.777 111.187 230.102 111.157 230.2 110.966Z" fill="#4D525B"/>
<path d="M218.387 92.8538C218.485 92.6623 218.319 92.3821 218.016 92.2278C217.714 92.0736 217.389 92.1037 217.291 92.2952C217.193 92.4866 217.359 92.7669 217.662 92.9211C217.964 93.0754 218.289 93.0452 218.387 92.8538Z" fill="#4D525B"/>
<path d="M216.714 95.3826L217.556 92.6578L218.063 92.8648L216.778 95.4073C216.759 95.4456 216.703 95.4231 216.714 95.3826Z" fill="#4D525B"/>
<path opacity="0.5" d="M231.02 109.992C229.77 111.585 226.805 111.744 222.77 110.093C216.14 107.379 209.133 100.807 207.119 95.4117C206.402 93.4925 206.415 91.9805 207.027 90.9522L215.281 90.8442L217.468 93.5037L217.155 93.7085L231.02 109.992Z" fill="#C83F37"/>
<path d="M190.621 131.007L174.568 131.722L174.688 134.393L190.74 133.678L190.621 131.007Z" fill="#F6CF4C"/>
<path d="M174.702 134.398C175.204 134.375 175.585 133.758 175.552 133.02C175.519 132.281 175.085 131.7 174.582 131.723C174.079 131.745 173.699 132.362 173.732 133.101C173.765 133.839 174.199 134.42 174.702 134.398Z" fill="#F5864E"/>
<path d="M190.686 133.686C191.189 133.664 191.57 133.047 191.536 132.308C191.503 131.569 191.069 130.989 190.566 131.011C190.064 131.034 189.683 131.651 189.716 132.389C189.749 133.128 190.183 133.708 190.686 133.686Z" fill="#F6CF4C"/>
<path d="M223.826 218.802L220.015 219.465L216.634 218.727L211.869 142.808H224.347L223.826 218.802Z" fill="#102441"/>
<path d="M223.817 218.784L219.902 219.465L219.189 173.883L224.203 160.718L223.817 218.784Z" fill="#634874"/>
<path d="M261.284 220.262C261.518 218.359 260.226 216.635 258.399 216.411C256.572 216.188 254.901 217.55 254.667 219.453C254.434 221.356 255.725 223.08 257.553 223.303C259.38 223.527 261.051 222.165 261.284 220.262Z" fill="#131620"/>
<path d="M290.313 222.279C292.14 222.056 293.432 220.332 293.198 218.429C292.965 216.526 291.294 215.164 289.467 215.387C287.639 215.611 286.348 217.334 286.581 219.238C286.815 221.141 288.486 222.503 290.313 222.279Z" fill="#131620"/>
<path d="M291.29 214.239C288.505 214.128 271.728 212.796 271.728 212.796C271.728 212.796 259.485 214.005 257.137 213.915C253.712 213.78 253.637 217.213 253.892 218.066C254.147 218.919 256.542 218.831 257.146 218.599L259.28 218.178L271.945 216.637L287.776 218.104L289.91 218.525C290.514 218.757 291.915 219.002 292.519 218.77L293.624 218.649C293.976 218.514 293.994 216.786 294.003 216.41C294.032 215.229 294.359 214.362 291.29 214.239Z" fill="#102441"/>
<path d="M258.34 136.2C258.34 136.2 265.545 131.554 269.483 141.211C273.438 150.91 271.154 150.523 262.756 154.119C258.038 156.139 250.149 159.494 243.032 161.445C237.572 162.941 224.812 168.895 221.35 161.004C219.282 156.29 221.424 152.137 225.303 150.253C229.194 148.366 258.34 136.2 258.34 136.2Z" fill="#D8A344"/>
<path d="M257.809 201.754C261.338 203.176 264.356 208.641 264.356 208.641C264.356 208.641 256.6 215.569 252.989 217.866C252.238 218.343 249.564 219.398 246.993 220.339C244.223 221.351 237.911 221.956 237.068 221.617C236.154 221.25 235.169 215.638 237.392 212.524C239.458 209.631 244.857 209.462 245.245 208.821C248.772 202.953 256.228 201.117 257.809 201.754Z" fill="#131620"/>
<path d="M245.408 208.513C245.408 208.513 246.457 208.47 247.309 210.436" stroke="#29ABE3" stroke-width="3" stroke-miterlimit="10" stroke-linecap="round" stroke-linejoin="round"/>
<path d="M240.967 210.009C240.967 210.009 241.93 209.701 242.967 211.647" stroke="#29ABE3" stroke-width="3" stroke-miterlimit="10" stroke-linecap="round" stroke-linejoin="round"/>
<path d="M243.648 209.278C243.648 209.278 244.814 209.629 245.229 210.889" stroke="#29ABE3" stroke-width="3" stroke-miterlimit="10" stroke-linecap="round" stroke-linejoin="round"/>
<path d="M236.869 221.434L237.07 222.451C237.135 222.78 237.372 223.054 237.652 223.12C239.618 223.574 245.728 222.411 248.073 221.52C250.382 220.642 251.769 220.087 253.788 218.566C256.778 216.309 265.131 210.542 265.131 210.542C265.131 210.542 265.278 209.163 264.342 208.652C264.008 208.47 254.651 215.479 250.57 218.433C249.584 219.146 247.782 219.828 246.652 220.087C242.164 221.115 236.869 221.434 236.869 221.434Z" fill="#29ABE3"/>
<path d="M245.975 208.22C246.164 208.434 246.446 208.578 246.758 208.616C248.027 208.774 251.744 208.753 254.644 207.448C258.275 205.813 262.03 203.126 262.03 203.126L257.488 195.217C257.488 195.217 243.009 169.259 239.015 161.353C236.108 155.597 231.945 151.072 225.856 153.003C220.144 154.814 219.526 158.34 222.313 164.476C224.262 168.762 236.059 189.997 236.059 189.997L243.422 204.784L245.975 208.22Z" fill="#D8A344"/>
<path d="M261.13 201.781L257.109 195.33C257.109 195.33 253.165 188.53 248.104 179.143C246.665 176.475 245.393 176.749 244.818 178.648C244.762 178.651 244.73 178.653 244.73 178.653C244.73 178.653 243.388 181.101 243.361 183.891C243.361 183.891 243.697 182.278 244.496 180.916C244.424 183.49 245.082 187.088 246.886 190.706C247.646 192.229 251.122 194.943 254.452 197.305C252.197 196.617 249.378 195.604 248.264 194.578C248.264 194.578 253.483 199.823 258.246 200.179C258.408 200.19 258.548 200.192 258.676 200.19C260.14 201.157 261.13 201.781 261.13 201.781Z" fill="#D8A344"/>
<path d="M280.113 165.614L290.819 172.823L292.961 171.489L281.185 164.01L280.113 165.614Z" fill="#102441"/>
<path d="M290.143 171.896L291.327 170.571C291.701 170.15 292.332 170.071 292.851 170.379L294.793 171.531C295.501 171.952 295.711 172.899 295.228 173.498L294.157 174.828C293.796 175.275 293.158 175.379 292.623 175.077L290.571 173.921C289.818 173.5 289.606 172.497 290.143 171.896Z" fill="#102441"/>
<path d="M281.988 158.758H274.494V212.283H281.988V158.758Z" fill="#102441"/>
<path d="M282.522 209.862C282.522 211.149 281.661 212.166 280.67 212.029C280.086 211.948 279.362 211.914 278.501 211.986C277.385 212.079 276.41 212.196 275.655 212.301C274.748 212.427 273.959 211.512 273.959 210.335V177.096H282.524V209.862H282.522Z" fill="#273150"/>
<path d="M280.561 172.823V175.671" stroke="#273150" stroke-width="3" stroke-miterlimit="10" stroke-linecap="round" stroke-linejoin="round"/>
<path d="M280.381 182.703V206.884" stroke="#273150" stroke-width="5" stroke-miterlimit="10"/>
<path d="M138.635 223.288L134.68 220.145L145.2 187.439L149.505 189.851L138.635 223.288Z" fill="#C83F37"/>
<path d="M145.199 187.439L167.873 186.962L172.503 189.127L149.504 189.851L145.199 187.439Z" fill="#EB5E4D"/>
<path d="M172.503 189.127L163.081 220.843L138.635 223.288L149.505 189.851L172.503 189.127Z" fill="#972D29"/>
<path d="M256.711 162.842L269.291 164.134C272.345 164.446 275.028 162.394 275.028 159.746V157.091C275.028 154.432 272.739 150.062 269.674 150.393L256.678 154.071C254.111 154.35 252.188 156.229 252.188 158.455C252.19 160.691 254.132 162.577 256.711 162.842Z" fill="#273150"/>
<path d="M297.381 162.739L271.55 164.293C268.066 164.502 265.125 161.74 265.125 158.257V156.274C265.125 152.895 267.901 150.172 271.286 150.229L297.117 150.658C300.446 150.715 303.107 153.437 303.078 156.758C303.051 159.933 300.561 162.547 297.381 162.739Z" fill="#634874"/>
<path d="M298.692 160.336C298.692 160.336 286.834 159.026 284.378 155.822C281.922 152.618 294.797 153.507 294.797 153.507C298.15 153.563 300.394 151.03 301.802 154.351C303.146 157.53 301.788 160.144 298.692 160.336Z" fill="#634874"/>
<path d="M265.256 225.511C267.543 225.511 269.396 223.662 269.396 221.38C269.396 219.099 267.543 217.249 265.256 217.249C262.969 217.249 261.115 219.099 261.115 221.38C261.115 223.662 262.969 225.511 265.256 225.511Z" fill="#131620"/>
<path d="M294.767 224.879C297.383 224.879 299.503 222.764 299.503 220.154C299.503 217.545 297.383 215.429 294.767 215.429C292.152 215.429 290.031 217.545 290.031 220.154C290.031 222.764 292.152 224.879 294.767 224.879Z" fill="#131620"/>
<path d="M266.344 221.065C266.344 221.065 266.317 221.279 268.082 220.8C269.941 220.296 270.536 220.042 270.595 219.686C270.669 219.243 270.367 218.188 271.012 217.951L276.677 216.037C277.64 215.755 278.634 215.355 279.62 215.546C279.62 215.546 291.013 218.595 292.31 218.822C293.607 219.049 293.158 220.498 293.819 220.676C294.976 220.991 296.487 220.894 296.487 220.894L297.028 216.424L276.436 211.681L266.199 217.42L266.344 221.065Z" fill="#102441"/>
<path d="M282.614 212.104C282.614 212.104 270.361 216.77 268.169 217.353C267.116 217.632 267.033 218.541 266.965 219.211L266.913 219.724C266.832 220.532 266.798 221.241 265.993 221.133L261.061 220.426C260.348 220.33 259.818 219.722 259.818 219.007C259.818 217.324 260.941 215.845 262.565 215.393C266.934 214.176 274.755 210.562 274.755 210.562L282.614 212.104Z" fill="#273150"/>
<path d="M274.336 212.594C274.336 212.594 291.331 216.662 293.577 216.984C294.7 217.144 295.542 218.125 295.893 218.894C296.245 219.664 295.686 221.009 296.491 220.899L300.453 220.732C301.166 220.636 301.647 219.621 301.647 218.903C301.647 217.22 300.839 215.742 299.215 215.29C294.847 214.072 281.453 210.533 281.453 210.533L274.336 212.594Z" fill="#273150"/>
<path d="M148.374 224.631L143.465 220.797L156.078 180.356L161.412 183.283L148.374 224.631Z" fill="#AA4928"/>
<path d="M156.078 180.356L184.029 179.523L189.76 182.142L161.412 183.283L156.078 180.356Z" fill="#F6CF4C"/>
<path d="M189.76 182.142L178.489 221.346L148.375 224.631L161.412 183.283L189.76 182.142Z" fill="#EE844E"/>
<path d="M152.892 230.432L165.88 228.36L165.794 225.687L152.807 227.759L152.892 230.432Z" fill="#F6CF4C"/>
<path d="M152.904 230.44C153.407 230.424 153.796 229.812 153.772 229.073C153.749 228.334 153.322 227.748 152.819 227.764C152.316 227.78 151.927 228.392 151.951 229.131C151.974 229.87 152.401 230.456 152.904 230.44Z" fill="#F5864E"/>
<path d="M165.822 228.37C166.325 228.354 166.714 227.742 166.69 227.003C166.667 226.264 166.24 225.678 165.737 225.694C165.234 225.71 164.845 226.322 164.869 227.061C164.892 227.8 165.319 228.386 165.822 228.37Z" fill="#F6CF4C"/>
<path d="M142.08 227.428L149.414 229.314L149.858 226.319L142.306 225.234L142.08 227.428Z" fill="#F6CF4C"/>
<path d="M142.99 226.254C142.934 226.868 142.528 227.401 142.09 227.433C141.657 227.464 141.362 226.992 141.43 226.384C141.495 225.786 141.89 225.275 142.314 225.234C142.744 225.194 143.047 225.646 142.99 226.254Z" fill="#F6CF4C"/>
<path d="M150.623 227.723C150.65 228.567 150.226 229.282 149.68 229.307C149.141 229.332 148.706 228.668 148.699 227.844C148.693 227.037 149.103 226.359 149.622 226.319C150.147 226.276 150.596 226.899 150.623 227.723Z" fill="#F5864E"/>
<path d="M272.698 86.0225L268.283 88.565C266.618 89.5235 264.433 88.8575 263.402 87.0777L258.942 79.367C257.911 77.5872 258.425 75.3665 260.089 74.4057L265.879 68.963C267.543 68.0045 268.355 71.5685 269.385 73.3505L273.846 81.0612C274.877 82.8432 274.363 85.064 272.698 86.0225Z" fill="#A76343"/>
<path d="M272.754 82.8095L270.131 84.3215C269.141 84.8907 267.555 83.9975 266.588 82.3257L262.398 75.0852C261.43 73.4135 260.21 70.9115 261.198 70.3422L266.193 67.4937C267.183 66.9245 267.903 70.331 268.87 72.0027L272.79 78.7505C273.76 80.4222 273.741 82.2402 272.754 82.8095Z" fill="#AA6345"/>
<path d="M263.405 87.0777L258.944 79.3669C257.913 77.5872 258.525 75.3102 260.311 74.2819L265.044 71.5549C266.828 70.5267 264.436 88.8574 263.405 87.0777Z" fill="#7C4631"/>
<path d="M261.54 111.108C261.54 111.108 255.088 105.548 250.69 103.5C247.49 102.011 244.531 104.67 245.118 107.595C245.609 110.046 257.727 121.93 259.779 123.98C261.831 126.027 262.711 130.417 268.87 126.027C275.029 121.64 267.697 114.91 261.54 111.108Z" fill="#7C4631"/>
<path d="M250.359 106.608C250.359 106.608 250.359 101.199 249.545 99.3042C248.731 97.412 245.208 94.5027 243.853 93.6927C242.497 92.8805 240.894 95.8505 241.395 97.448C241.733 98.5302 242.689 100.193 243.909 103.032C245.127 105.872 247.784 108.095 250.359 106.608Z" fill="#7C4631"/>
<path d="M250.918 112.921L245.981 115.718L237.605 100.429L234.326 93.749L231.162 88.7157L235.598 86.459L238.167 91.4697L242.443 98.4402L250.918 112.921Z" fill="#F5864E"/>
<path d="M248.854 115.015C250.237 114.221 251.174 113.259 250.948 112.865C250.721 112.472 249.416 112.797 248.033 113.591C246.65 114.385 245.713 115.348 245.94 115.741C246.167 116.134 247.471 115.809 248.854 115.015Z" fill="#EB5E4D"/>
<path d="M235.077 97.4164C233.737 97.5311 233.451 98.9351 233.902 99.9274C234.353 100.92 235.102 100.868 236.604 101.057C238.514 101.298 241.626 101.457 241.849 100.53C242.072 99.6011 241.714 99.1016 239.445 98.1634C238.667 97.8416 236.416 97.3016 235.077 97.4164Z" fill="#7C4631"/>
<path d="M236.941 100.497C236.138 100.285 235.403 101.163 235.737 101.934C236.062 102.686 236.4 103.424 236.58 103.689C236.882 104.133 239.913 104.225 241.555 104.243C242.121 104.25 242.606 103.759 242.611 103.176L242.615 102.735C242.62 102.294 242.345 101.923 241.936 101.815L236.941 100.497Z" fill="#7C4631"/>
<path d="M238.043 105.606L238.323 105.998C238.546 106.311 238.88 106.473 239.203 106.425L242.267 105.98C242.84 105.897 243.17 105.201 242.958 104.522C242.804 104.034 242.409 103.703 241.99 103.707L238.646 103.759C237.868 103.775 237.513 104.864 238.043 105.606Z" fill="#7C4631"/>
<path d="M239.479 106.9L239.765 107.654C239.866 107.958 240.135 108.178 240.455 108.214C240.455 108.214 241.98 108.356 242.74 108.261C243.5 108.167 243.831 107.739 243.545 106.839C243.258 105.937 242.451 105.795 241.452 105.89C240.455 105.984 239.553 106.126 239.479 106.9Z" fill="#7C4631"/>
<path d="M242.722 93.2045C240.846 92.7747 239.446 93.4273 236.608 94.5658C234.843 95.2745 237.193 97.637 238.839 97.4728C240.418 97.3153 241.931 97.07 242.573 97.106C244.118 97.1848 245.259 93.785 242.722 93.2045Z" fill="#7C4631"/>
<path d="M230.4 79.4435C232.545 78.5097 238.28 80.3502 240.817 81.2502C241.234 81.3987 241.462 81.8375 241.347 82.2672L241.135 83.0457C241.135 83.0457 237.565 82.391 235.75 82.175C234.514 82.0265 233.54 82.9175 233.043 83.5025L230.4 79.4435Z" fill="#102441"/>
<path d="M222.47 84.9357L225.462 83.0682C225.697 82.922 225.857 82.6835 225.902 82.4135L226.168 80.8092C226.213 80.5415 226.371 80.303 226.603 80.1567C227.499 79.5897 229.885 78.125 231.955 77.225C234.298 76.2057 240.563 78.215 243.333 79.1982C243.788 79.3602 244.038 79.8395 243.91 80.3075L243.68 81.158C243.68 81.158 239.781 80.4425 237.798 80.2062C236.447 80.0442 235.383 81.0185 234.842 81.6552C234.591 81.95 234.249 82.5912 234.425 82.9265L235.933 85.7727C236.177 86.234 236.287 86.5805 235.814 86.8235L230.976 89.2895C230.564 89.4987 230.631 89.4605 230.358 89.0982L228.744 86.936C228.473 86.5715 227.406 86.387 226.994 86.5985L224.226 88.0092C223.78 88.2365 223.236 88.0835 222.986 87.6605L222.138 86.216C221.888 85.775 222.032 85.2102 222.47 84.9357Z" fill="#634874"/>
<path d="M234.049 88.637C232.856 89.3052 231.69 89.5347 231.447 89.15C231.203 88.7652 232.085 88.1352 233.28 87.467C234.476 86.7987 235.529 86.3487 235.77 86.7312C236.014 87.116 235.242 87.9687 234.049 88.637Z" fill="#F5864E"/>
<path d="M218.222 87.3724C218.265 88.3084 218.601 89.7844 220.164 90.6101C220.579 90.8284 220.82 90.9904 221.224 90.7361L223.477 89.3119C223.991 88.9901 224.158 88.3151 223.851 87.8044L222.315 85.2506C222.009 84.7399 221.346 84.5869 220.832 84.9086L218.601 86.3194C218.184 86.5849 218.2 86.8774 218.222 87.3724Z" fill="#634874"/>
<path d="M243.68 215.881C244.629 220.084 244.618 224.067 244.573 225.541C244.562 225.887 244.307 226.168 243.96 226.213C241.454 226.546 231.653 227.822 228.191 227.923C225.289 228.009 217.86 227.631 215.585 226.958C214.538 226.65 214.033 223.716 213.758 221.891C213.395 219.488 214.403 217.315 218.53 215.944C222.646 214.579 228.435 215.411 228.435 215.411C228.435 215.411 243.349 214.412 243.68 215.881Z" fill="#131620"/>
<path d="M223.598 214.88C223.598 214.88 225.289 214.693 226.205 217.384" stroke="#29ABE3" stroke-width="3" stroke-miterlimit="10" stroke-linecap="round" stroke-linejoin="round"/>
<path d="M226.213 214.977C226.213 214.977 228.531 214.601 229.221 217.472" stroke="#29ABE3" stroke-width="3" stroke-miterlimit="10" stroke-linecap="round" stroke-linejoin="round"/>
<path d="M228.928 215.024C228.928 215.024 231.255 214.79 231.758 217.722" stroke="#29ABE3" stroke-width="3" stroke-miterlimit="10" stroke-linecap="round" stroke-linejoin="round"/>
<path d="M215.583 226.958C215.583 226.958 215.425 228.135 215.879 228.256C216.801 228.502 221.697 228.877 228.212 228.639C232.98 228.463 233.411 228.223 235.977 228.297C240.474 228.427 243.87 227.824 244.085 227.788C244.299 227.752 244.443 226.96 244.233 226.189C244.157 225.91 238.76 227.302 227.606 227.593C219.101 227.818 215.583 226.958 215.583 226.958Z" fill="#29ABE3"/>
<path d="M226.984 213.872C226.984 213.872 229.379 216.799 233.727 218.035C238.134 219.286 244.834 218.928 244.834 218.928L248.239 213.19L252.851 177.78C252.851 177.78 258.21 151.097 249.922 148.525C244.333 146.793 238.459 146.167 236.918 152.56C235.813 157.141 229.986 183.124 229.986 183.124L229.438 200.273C229.438 200.273 226.019 209.791 225.978 210.128C225.841 211.215 226.984 213.872 226.984 213.872Z" fill="#F6CF4C"/>
<path d="M288.996 134.384C288.996 134.384 298.148 129.972 300.773 140.497C303.398 151.023 293.816 151.475 293.816 151.475C293.816 151.475 277.937 154.697 268.329 155.66C260.923 156.403 242.038 162.388 239.418 153.649C237.848 148.413 241.668 144.401 247.2 143.038C252.732 141.674 288.996 134.384 288.996 134.384Z" fill="#FEED7F"/>
<path d="M293.174 144.732C294.994 142.331 296.902 139.843 296.902 139.843C297.181 131.79 286.201 135.082 286.201 135.082C286.201 135.082 257.275 140.068 245.476 143.479C237.606 145.753 233.99 159.395 246.162 159.332C252.382 159.301 279.539 154.213 279.539 154.213C279.539 154.213 293.018 148.865 295.882 144.086C296.232 143.501 294.554 144.678 293.174 144.732Z" fill="#F6CF4C"/>
<path d="M267.731 79.9856C269.565 78.8224 275.234 77.6569 277.402 78.4894C279.569 79.3219 291.082 95.0426 295.333 105.521C297.599 111.108 301.537 135.169 301.537 137.664C301.537 140.16 285.523 142.299 285.523 142.299C285.523 142.299 266.649 138.868 264.148 131.884C263.137 129.063 265.018 127.434 264.648 124.398C264.1 119.921 261.475 113.868 260.481 108.513C258.814 99.5314 255.966 92.3269 258.701 87.6109C260.535 84.4496 265.898 81.1489 267.731 79.9856Z" fill="#29ABE3"/>
<path opacity="0.5" d="M267.732 79.9857C268.392 79.5672 277.485 83.8939 277.485 83.8939L281.82 89.0509C281.82 89.0509 291.299 103.325 292.764 110.277C294.598 119.79 297.349 140.004 297.349 140.004C297.349 140.004 294.702 140.697 292.514 141.136C290.036 141.633 285.523 142.299 285.523 142.299C283.16 141.852 277.224 140.589 272.305 138.245C268.67 136.51 265.682 134.17 264.619 131.202C263.609 128.381 265.019 127.434 264.647 124.398C264.098 119.921 261.473 113.868 260.479 108.513C258.812 99.5314 255.964 92.3269 258.7 87.6109C260.535 84.4497 265.898 81.1489 267.732 79.9857Z" fill="#209BC7"/>
<path d="M292.229 112.008L294.716 124.068C294.716 124.068 292.529 120.823 292.252 117.831C291.972 114.84 292.229 112.008 292.229 112.008Z" fill="#29ABE3"/>
<path d="M264.813 83.7273C264.813 83.7273 269.481 82.3976 271.815 83.0613C274.149 83.7273 278.985 91.2108 280.818 96.8673C282.652 102.524 281.653 105.183 277.816 106.016C273.983 106.848 272.314 108.178 266.646 102.688C260.979 97.2004 257.145 87.3881 264.813 83.7273Z" fill="#A96443"/>
<path d="M274.775 98.24C276.275 99.0725 279.818 106.849 273.149 106.682C270.109 106.606 264.322 100.821 263.646 98.366C263.262 96.9778 261.889 95.567 262.48 95.3713C264.73 94.622 273.275 97.4098 274.775 98.24Z" fill="#7C4631"/>
<path d="M256.478 91.7127L258.895 88.9407C258.895 88.9407 260.061 98.1994 262.813 101.943C265.564 105.687 272.817 110.343 272.817 110.343L280.818 127.143L280.509 137.178C279.763 139.415 275.83 140.025 273.841 141.298L255.334 147.769C255.141 147.891 252.333 160.576 252.333 160.576L251.611 169.668C251.611 169.668 247.809 169.558 237.805 168.559C227.801 167.56 216.822 164.235 216.822 164.235L223.825 136.623L264.148 131.882C264.148 131.882 263.51 131.776 263.153 130.224C262.371 126.806 261.284 119.25 259.563 110.673C257.062 98.1994 256.478 91.7127 256.478 91.7127Z" fill="#273150"/>
<path d="M258.141 89.6135C259.731 83.2708 267.797 79.3693 274.985 77.3533" stroke="#F6CF4C" stroke-width="3" stroke-miterlimit="10" stroke-linecap="round" stroke-linejoin="round"/>
<path d="M276.055 77.2969C276.055 77.2969 276.558 74.4147 277.89 74.5812C279.223 74.7499 279.043 77.1102 276.055 77.2969Z" stroke="#F6CF4C" stroke-width="3" stroke-miterlimit="10" stroke-linecap="round" stroke-linejoin="round"/>
<path d="M275.417 77.6478C275.417 77.6478 276.88 76.0481 275.627 75.1008C274.375 74.1536 273.888 75.5081 275.417 77.6478Z" stroke="#F6CF4C" stroke-width="3" stroke-miterlimit="10" stroke-linecap="round" stroke-linejoin="round"/>
<path d="M275.797 77.4521C275.797 77.4521 278.23 78.6514 278.44 80.6809" stroke="#F6CF4C" stroke-width="3" stroke-miterlimit="10" stroke-linecap="round" stroke-linejoin="round"/>
<path d="M275.531 77.5287C275.531 77.5287 276.584 81.0229 275.371 82.8184" stroke="#F6CF4C" stroke-width="3" stroke-miterlimit="10" stroke-linecap="round" stroke-linejoin="round"/>
<path d="M279.82 127.085C279.82 127.085 289.658 127.141 299.161 125.643" stroke="#F6CF4C" stroke-width="3" stroke-miterlimit="10" stroke-linecap="round" stroke-linejoin="round"/>
<path d="M298.656 125.645C298.656 125.645 297.821 127.641 299.49 128.473C301.159 129.306 300.659 127.308 298.656 125.645Z" stroke="#F6CF4C" stroke-width="3" stroke-miterlimit="10" stroke-linecap="round" stroke-linejoin="round"/>
<path d="M302.326 126.588C302.383 125.755 299.992 124.702 298.826 125.424C297.658 126.144 302.27 127.418 302.326 126.588Z" stroke="#F6CF4C" stroke-width="3" stroke-miterlimit="10" stroke-linecap="round" stroke-linejoin="round"/>
<path d="M298.436 125.922C298.436 125.922 302.103 127.807 301.992 131.578" stroke="#F6CF4C" stroke-width="3" stroke-miterlimit="10" stroke-linecap="round" stroke-linejoin="round"/>
<path d="M298.936 125.978C298.936 125.978 299.88 124.536 301.881 124.648" stroke="#F6CF4C" stroke-width="3" stroke-miterlimit="10" stroke-linecap="round" stroke-linejoin="round"/>
<path d="M266.316 84.3936C266.316 84.3936 259.647 84.3936 258.314 89.3841C256.981 94.3746 255.035 104.027 254.814 106.351C254.48 109.843 249.645 115.833 248.813 121.654C247.978 127.474 250.184 129.904 253.815 131.551C262.067 135.293 264.484 121.156 265.486 117.496C266.487 113.837 270.821 106.351 273.821 99.8646C276.82 93.3778 273.816 83.5611 266.316 84.3936Z" fill="#A96443"/>
<path d="M253.809 131.549C262.06 135.291 264.478 121.154 265.479 117.493C266.481 113.835 270.815 106.349 273.815 99.8624C275.535 96.1409 269.218 107.53 263.377 117.77C262.047 120.103 252.735 131.063 253.809 131.549Z" fill="#D77D5B"/>
<path d="M256.311 124.873C255.136 121.615 250.048 119.953 245.563 119.651C241.212 119.356 233.013 122.029 221.391 122.241C217.77 122.306 215.638 129.954 221.247 130.8C227.794 131.788 246.869 133.871 248.81 133.954C250.75 134.038 258.431 130.757 256.311 124.873Z" fill="#A76241"/>
<path d="M260.411 124.644C260.208 124.158 259.683 123.53 259.331 123.233C259.065 123.584 256.246 128.111 253.372 129.371C249.205 131.2 243.226 131.81 243.226 131.81C243.226 131.81 221.669 131.493 227.336 131.689C233.953 131.918 252.071 134.67 254.008 134.528C255.943 134.386 263.196 130.244 260.411 124.644Z" fill="#D77D5B"/>
<path d="M223.547 126.322C224.789 124.927 222.803 120.574 223.017 118.697C223.231 116.821 221.129 114.978 219.765 112.809C218.4 110.64 218.344 110.788 216.35 110.01C214.357 109.231 212.638 108.815 213.279 111.076C213.919 113.338 215.845 114.004 215.845 114.004C215.845 114.004 216.824 116.809 217.703 117.797C218.77 118.994 214.738 124.563 216.386 126.86C218.037 129.16 221.589 128.518 223.547 126.322Z" fill="#A76241"/>
<path d="M218.288 117.608C218.288 117.608 213.823 117.313 212.966 117.014C212.111 116.715 210.747 115.815 209.896 115.383C209.47 115.167 207.995 112.213 207.086 111.927C206.178 111.641 205.009 112.791 204.912 113.457C204.718 114.791 205.981 117.163 207.1 118.141C208.221 119.12 208.392 119.665 210.945 120.963C213.498 122.263 214.743 123.782 217.93 123.496C221.116 123.211 220.568 118.495 218.288 117.608Z" fill="#A76241"/>
<path d="M205.99 115.597C204.502 115.498 204.937 119.845 205.699 120.317C206.121 120.578 208.158 122.205 208.158 122.205L207.499 123.076C207.334 123.463 207.573 124.246 207.891 124.54L209.371 125.915L210.165 129.252C210.165 129.252 211.597 130.622 214.928 130.631C218.971 130.642 220.985 130.849 221.808 128.064C222.631 125.278 207.479 115.696 205.99 115.597Z" fill="#A76241"/>
<path d="M252.83 51.9754C249.521 51.1902 242.233 52.0654 240.812 58.2214C239.847 62.4087 244.664 76.7816 246.923 80.1634C250.135 84.9694 253.436 83.6351 259.271 81.2726C265.342 78.8156 267.924 74.0907 266.981 69.1047C266.038 64.1187 263.159 54.4279 252.83 51.9754Z" fill="#7A462F"/>
<path d="M251.904 60.1948C250.555 66.1528 250.539 69.3523 251.773 72.4798C253.004 75.6073 257.921 81.5203 260.692 79.4323C262.052 78.4085 263.705 77.27 264.56 75.0313C265.033 73.7938 264.1 70.4323 263.013 68.3848C261.182 64.9265 253.248 54.2503 251.904 60.1948Z" fill="#A96443"/>
<path d="M240.709 58.6512C240.709 58.6512 242.592 60.404 252.188 56.2189C252.393 56.129 253.615 64.0512 256.877 66.434C258.067 67.3047 257.445 62.7462 258.94 63.8757C261.423 65.7522 263.25 68.6795 263.25 68.6795L265.212 75.0875C265.212 75.0875 275.026 72.5945 271.914 62.546C268.827 52.5717 264.801 42.0552 249.784 49.8109C241.875 53.8947 240.65 55.5957 240.709 58.6512Z" fill="#273150"/>
<path d="M254.945 52.4726C255.419 54.2096 261.375 57.3259 261.375 57.3259L268.289 62.8451C268.289 62.8451 270.858 73.8702 271.699 65.7926C272.157 61.3871 268.215 50.1281 261.941 48.0784C258.61 46.9894 253.592 47.5091 254.945 52.4726Z" fill="#48598B"/>
<path d="M260.689 70.1282C262.456 69.9363 263.626 67.3814 263.303 64.4216C262.98 61.4618 261.286 59.2179 259.52 59.4098C257.753 59.6017 256.582 62.1566 256.905 65.1164C257.228 68.0762 258.922 70.3201 260.689 70.1282Z" fill="#A96443"/>
<path d="M246.002 68.631C246.513 68.4235 246.647 67.5667 246.3 66.7173C245.954 65.8678 245.259 65.3473 244.748 65.5547C244.237 65.7621 244.103 66.6189 244.449 67.4684C244.796 68.3179 245.491 68.8384 246.002 68.631Z" fill="#102441"/>
<path d="M243.268 63.2231C243.268 63.2231 244.941 62.5166 246.549 63.6214" stroke="#102441" stroke-width="2" stroke-miterlimit="10" stroke-linecap="round" stroke-linejoin="round"/>
<path d="M255.102 53.8497C255.102 53.8497 259.432 57.056 261.125 57.47C261.125 57.47 258.2 58.154 255.102 53.8497Z" fill="#48598B"/>
<path d="M260.657 70.5987C261.451 70.5987 262.094 69.957 262.094 69.1654C262.094 68.3739 261.451 67.7322 260.657 67.7322C259.864 67.7322 259.221 68.3739 259.221 69.1654C259.221 69.957 259.864 70.5987 260.657 70.5987Z" fill="#F3E7D7"/>
<path d="M165.812 224.717L162.413 223.524L160.117 141.364H165.812V224.717Z" fill="#273150"/>
<path d="M165.812 190.269L161.524 189.291L160.117 141.364H165.812V190.269Z" fill="#102441"/>
<path d="M170.846 224.152L165.811 224.717V140.956H172.328L170.846 224.152Z" fill="#634874"/>
<path d="M170.846 224.152L165.811 224.717V190.269L171.597 181.101L170.846 224.152Z" fill="#634874"/>
<path d="M166.182 142.916L168.013 154.308L199.547 156.09L227.431 154.866L228.694 141.492L166.182 142.916Z" fill="#C83F37"/>
<path d="M166.182 142.916L167.988 154.308L199.072 156.09L198.456 142.173L166.182 142.916Z" fill="#972D29"/>
<path d="M198.508 143.094L198.731 148.197L228.18 146.808L228.635 141.492L198.508 143.094Z" fill="#972D29"/>
<path d="M190.985 233.886L185.476 232.34L180.814 141.418H189.648L190.985 233.886Z" fill="#273150"/>
<path d="M189.914 189.023L183.313 188.222L180.814 141.418H189.648L189.914 189.023Z" fill="#102441"/>
<path d="M195.505 233.4L190.986 233.883L188.846 141.795H195.981L195.505 233.4Z" fill="#634874"/>
<path d="M195.802 176.74L189.914 189.023L190.985 233.883L195.505 233.4L195.802 176.74Z" fill="#634874"/>
<path d="M237.544 231.154L233.453 229.852L229.852 141.604L236.561 141.42L237.544 231.154Z" fill="#273150"/>
<path d="M236.917 174.981L231.133 174.128L229.852 141.604L236.561 141.42L236.917 174.981Z" fill="#102441"/>
<path d="M242.553 230.736L237.544 231.109L236.561 141.42L243.166 141.118L242.553 230.736Z" fill="#634874"/>
<path d="M242.552 230.736L237.543 231.109L236.916 174.981L242.998 167.481L242.552 230.736Z" fill="#634874"/>
<path d="M198.479 144.34L150.137 142.929V134.368L198.479 132.856V144.34Z" fill="#273150"/>
<path d="M198.48 144.34L257.154 142.633V132.661L198.48 132.861V144.34Z" fill="#634874"/>
<path d="M225.172 142.817L256.986 141.609L257.185 134.251L233.794 134.58L225.172 142.817Z" fill="#634874"/>
</svg>
